<?xml version="1.0" encoding="UTF-8" standalone="no"?>
<svg
   width="50"
   height="50"
   viewBox="0 0 13.229167 13.229221"
   version="1.1"
   id="svg1"
   xml:space="preserve"
   xmlns="http://www.w3.org/2000/svg"
   xmlns:svg="http://www.w3.org/2000/svg"><defs
     id="defs1" /><path
     id="club"
     style="fill:#1a1a1a;stroke:none;stroke-width:0.396875"
     d="m 6.4884125,0.00435853 a 3.4394312,3.4502569 89.99994 0 0 -3.076252,2.28062897 3.4394312,3.4502569 89.99994 0 0 0.02045,2.34577 3.4394312,3.4502569 89.99994 0 0 -3.23236601,2.278382 3.4394312,3.4502569 89.99994 0 0 2.09194101,4.3945855 3.4394312,3.4502569 89.99994 0 0 3.984197,-1.278572 c -0.12206,0.819448 -0.23782,1.673606 -0.30055,1.801726 -0.12966,0.264811 -1.703462,1.028083 -1.710082,1.402341 h 4.697832 c 0.0064,-0.361643 -1.53717,-1.048522 -1.662455,-1.304404 -0.06858,-0.140066 -0.2053,-1.105338 -0.346155,-1.9856945 a 3.4394312,3.4502569 89.99994 0 0 1.666051,1.2695865 3.4394312,3.4502569 89.99994 0 0 4.4080655,-2.0856535 3.4394312,3.4502569 89.99994 0 0 -2.092171,-4.394136 3.4394312,3.4502569 89.99994 0 0 -1.0087945,-0.190707 3.4394312,3.4502569 89.99994 0 0 -2.107886,-4.33865297 3.4394312,3.4502569 89.99994 0 0 -1.33181,-0.1952 z" /></svg>
