<?xml version="1.0" encoding="UTF-8" standalone="no"?>
<svg
   width="50"
   height="50"
   viewBox="0 0 13.229166 13.229167"
   version="1.1"
   id="svg1"
   xml:space="preserve"
   xmlns="http://www.w3.org/2000/svg"
   xmlns:svg="http://www.w3.org/2000/svg"><defs
     id="defs1" /><path
     id="spade"
     style="display:inline;fill:#1a1a1a;stroke:none;stroke-width:0.396876"
     d="M 6.6135462,2.4282908e-6 1.3669266,5.0541034 A 3.8672391,3.725507 0 0 0 -3.9991444e-7,7.8963404 3.8672391,3.725507 0 0 0 3.8671066,11.622004 a 3.8672391,3.725507 0 0 0 2.33348,-0.754628 c -0.0951,0.559272 -0.17999,1.053403 -0.23071,1.142619 -0.1309,0.23021 -1.71993,0.89382 -1.72662,1.219172 h 4.7426396 c 0.007,-0.31439 -1.55165,-0.911762 -1.67814,-1.134214 -0.0535,-0.094 -0.14805,-0.615437 -0.25381,-1.200545 a 3.8672391,3.725507 0 0 0 2.3081,0.736228 3.8672391,3.725507 0 0 0 3.8671198,-3.7256636 3.8672391,3.725507 0 0 0 -1.31594,-2.799758 l -10e-4,-7e-4 z" /></svg>
