<?xml version="1.0" encoding="UTF-8" standalone="no"?>
<!-- http://code.google.com/p/vector-playing-cards/ -->

<svg
   width="167.08691pt"
   height="242.66701pt"
   viewBox="0 0 167.08691 242.66701"
   xml:space="preserve"
   id="svg2"
   version="1.1"
   xmlns="http://www.w3.org/2000/svg"
   xmlns:svg="http://www.w3.org/2000/svg"
   xmlns:rdf="http://www.w3.org/1999/02/22-rdf-syntax-ns#"
   xmlns:cc="http://creativecommons.org/ns#"
   xmlns:dc="http://purl.org/dc/elements/1.1/"><metadata
   id="metadata43"><rdf:RDF><cc:Work
       rdf:about=""><dc:format>image/svg+xml</dc:format><dc:type
         rdf:resource="http://purl.org/dc/dcmitype/StillImage" /><dc:title /></cc:Work></rdf:RDF></metadata><defs
   id="defs41" />
	<path
   style="clip-rule:nonzero;fill:#ffffff;fill-rule:nonzero;stroke:#000000;stroke-width:0.5;stroke-miterlimit:4"
   d="m 166.83691,235.54785 c 0,3.77735 -3.08691,6.86914 -6.87109,6.86914 H 7.1108398 C 3.3359375,242.41699 0.25,239.3252 0.25,235.54785 V 7.1201172 C 0.25,3.3427734 3.3359375,0.25 7.1108398,0.25 H 159.96582 c 3.78418,0 6.87109,3.0927734 6.87109,6.8701172 z"
   id="path5" />




















<rect
   style="fill:#d4aa00;stroke-width:0.75"
   id="rect6"
   width="151.23105"
   height="219.21964"
   x="8.2806625"
   y="10.895609"
   ry="7.4090142" /><path
   style="fill:#008000;stroke-width:0.75"
   d="m 41.403313,99.36795 c 12.040747,-0.587152 24.120079,-0.679065 36.173417,0 13.400693,0.75497 26.70699,2.67515 40.09584,3.48659 1.5951,0.0967 3.19605,0 4.79407,0 0.14527,0 0.3331,-0.10272 0.43582,0 1.10628,1.10627 -1.6919,4.73411 -1.74329,4.79407 -4.26058,4.97067 -5.51164,4.71703 -12.63891,8.28067 -15.815047,7.90752 -31.294058,15.39441 -46.633203,24.40616 -1.782628,1.04729 -21.969932,14.7709 -22.662866,15.25385 -0.763145,0.53189 -1.381471,1.2647 -2.179122,1.74329 -0.393932,0.23637 0.265208,-0.88092 0.435825,-1.30746 1.027684,-2.56922 -0.321398,0.004 1.307472,-3.4866 6.8575,-14.69464 -2.700693,6.59455 4.358244,-9.15231 4.274646,-9.53575 8.345784,-19.47183 13.946379,-28.32858 4.134483,-9.17381 11.674634,-16.042218 16.997149,-24.406165 2.953477,-4.641173 5.274704,-8.850938 6.973192,-13.946378 0.485782,-1.457362 1.706002,-4.233558 2.179117,-3.050773 0.275115,0.687777 0.232328,1.466863 0.435825,2.179123 0.669015,2.341545 1.368623,4.676768 2.179125,6.973185 1.13958,3.228818 5.160743,13.16577 6.53736,16.125503 2.714423,7.079155 7.233083,13.235995 10.459783,20.047915 1.06271,2.24349 1.70507,4.6635 2.61495,6.9732 3.25646,8.26638 6.17455,15.95382 7.40901,24.84198 0.27501,1.98006 0.69927,12.81129 0.43583,13.07473 -0.94708,0.94708 -1.66787,-2.1037 -2.61495,-3.05077 -1.45999,-1.45999 -3.0761,-2.7771 -4.79406,-3.92242 -2.21899,-1.47932 -4.66125,-2.59305 -6.973195,-3.92242 C 86.961405,146.09118 74.85007,139.47193 63.19453,132.05477 55.566262,127.20042 46.95111,122.01886 41.403313,114.6218 c -2.116697,-2.82226 -2.301399,-5.03338 -3.050771,-8.28066 -0.577205,-2.50123 -1.91617,-4.70399 -3.05077,-6.97319"
   id="path2" /><ellipse
   style="fill:#008000;stroke-width:0.75"
   id="path7"
   cx="82.806625"
   cy="121.8129"
   rx="67.116951"
   ry="71.257278" /><path
   style="fill:#d4aa00;stroke-width:0.75"
   id="path13"
   d="M 123.60543,143.97835 A 43.14661,42.274963 0 0 1 75.844696,162.93854 43.14661,42.274963 0 0 1 43.610132,123.54522 43.14661,42.274963 0 0 1 72.883278,81.99166 43.14661,42.274963 0 0 1 121.90696,97.552638 L 86.72905,122.03082 Z" /></svg>
