<?xml version="1.0" encoding="UTF-8" standalone="no"?>
<!-- http://code.google.com/p/vector-playing-cards/ -->

<svg
   width="167.08691pt"
   height="242.66701pt"
   viewBox="0 0 167.08691 242.66701"
   xml:space="preserve"
   id="svg2"
   version="1.1"
   inkscape:version="1.4.2 (f4327f4, 2025-05-13)"
   sodipodi:docname="burgerman.svg"
   inkscape:export-filename="back\burgerman.svgt.svg"
   inkscape:export-xdpi="215.44792"
   inkscape:export-ydpi="215.44792"
   xmlns:inkscape="http://www.inkscape.org/namespaces/inkscape"
   xmlns:sodipodi="http://sodipodi.sourceforge.net/DTD/sodipodi-0.dtd"
   xmlns="http://www.w3.org/2000/svg"
   xmlns:svg="http://www.w3.org/2000/svg"
   xmlns:rdf="http://www.w3.org/1999/02/22-rdf-syntax-ns#"
   xmlns:cc="http://creativecommons.org/ns#"
   xmlns:dc="http://purl.org/dc/elements/1.1/"><metadata
   id="metadata43"><rdf:RDF><cc:Work
       rdf:about=""><dc:format>image/svg+xml</dc:format><dc:type
         rdf:resource="http://purl.org/dc/dcmitype/StillImage" /></cc:Work></rdf:RDF></metadata><defs
   id="defs41"><inkscape:path-effect
     effect="mirror_symmetry"
     start_point="86.40195,102.40816"
     end_point="86.40195,118.08687"
     center_point="86.40195,110.24751"
     id="path-effect2"
     is_visible="true"
     lpeversion="1.2"
     lpesatellites=""
     mode="free"
     discard_orig_path="false"
     fuse_paths="false"
     oposite_fuse="false"
     split_items="false"
     split_open="false"
     link_styles="false" /></defs><sodipodi:namedview
   pagecolor="#ffffff"
   bordercolor="#666666"
   borderopacity="1"
   objecttolerance="10"
   gridtolerance="10"
   guidetolerance="10"
   inkscape:pageopacity="0"
   inkscape:pageshadow="2"
   inkscape:window-width="1920"
   inkscape:window-height="1009"
   id="namedview39"
   showgrid="false"
   inkscape:zoom="4.0000001"
   inkscape:cx="124.875"
   inkscape:cy="107.875"
   inkscape:window-x="1912"
   inkscape:window-y="-8"
   inkscape:window-maximized="1"
   inkscape:current-layer="svg2"
   inkscape:showpageshadow="0"
   inkscape:pagecheckerboard="0"
   inkscape:deskcolor="#505050"
   inkscape:document-units="pt"
   inkscape:lockguides="false"><inkscape:page
     x="0"
     y="0"
     width="167.08691"
     height="242.66702"
     id="page2"
     margin="0"
     bleed="0" /></sodipodi:namedview>
	




<path
   style="clip-rule:nonzero;fill:#ffffff;fill-rule:nonzero;stroke:#000000;stroke-width:0.75;stroke-miterlimit:4;stroke-dasharray:none"
   d="m 167.08691,235.79785 c 0,3.77735 -3.08691,6.86914 -6.87109,6.86914 H 7.36084 C 3.585938,242.66699 0.5,239.5752 0.5,235.79785 V 7.370117 C 0.5,3.592773 3.585938,0.5 7.36084,0.5 h 152.85498 c 3.78418,0 6.87109,3.092773 6.87109,6.870117 z"
   id="path5-2" /><path
   style="clip-rule:nonzero;fill:#815833;fill-opacity:1;fill-rule:nonzero;stroke:#000000;stroke-width:0.75;stroke-miterlimit:4;stroke-dasharray:none"
   d="m 154.96084,225.05653 c 0,3.42831 -2.61665,6.23439 -5.82436,6.23439 H 19.566745 c -3.199846,0 -5.815684,-2.80608 -5.815684,-6.23439 V 17.736353 c 0,-3.428304 2.615838,-6.235293 5.815684,-6.235293 H 149.13648 c 3.20771,0 5.82436,2.806989 5.82436,6.235293 z"
   id="path5-2-1"
   sodipodi:nodetypes="sssssssss" /><path
   style="fill:#d52820;fill-opacity:1;stroke:#000000;stroke-width:0.75;stroke-dasharray:none;paint-order:normal"
   d="m 48.194004,115.0723 c 0,0 -1.797256,9.03813 5.551526,8.65957 7.34878,-0.37856 56.79329,0.2366 56.79329,0.2366 0,0 5.9327,1.04104 5.85284,-8.89617"
   id="path5"
   sodipodi:nodetypes="cscc" /><path
   style="fill:#923000;fill-opacity:1;stroke:#000000;stroke-width:0.75;stroke-dasharray:none;paint-order:normal"
   d="m 46.67393,126.67805 c -4.306444,0.28563 -3.609491,8.29418 0.778509,10.02443 4.388023,1.73027 66.841321,1.95699 69.769531,0 3.92288,-2.62173 3.54139,-10.21569 0.26542,-10.21441 -3.8646,0.001 -66.881641,-0.0708 -70.81346,0.18998 z"
   id="path7"
   sodipodi:nodetypes="sssss" /><path
   style="fill:#ffdd55;fill-opacity:1;stroke:#000000;stroke-width:0.75;stroke-dasharray:none;paint-order:normal"
   id="path1"
   sodipodi:type="arc"
   sodipodi:cx="82.485176"
   sodipodi:cy="-115.8078"
   sodipodi:rx="42.611851"
   sodipodi:ry="28.244108"
   sodipodi:start="0"
   sodipodi:end="3.1415927"
   sodipodi:arc-type="slice"
   d="m 125.09703,-115.8078 a 42.611851,28.244108 0 0 1 -21.30593,24.460115 42.611851,28.244108 0 0 1 -42.61185,-10e-7 42.611851,28.244108 0 0 1 -21.305925,-24.460114 h 42.611851 z"
   transform="scale(1,-1)" /><ellipse
   style="fill:#fff6d5;stroke:#000000;stroke-width:0.75;stroke-dasharray:none;paint-order:normal"
   id="path8-8"
   cx="144.95769"
   cy="-8.9028921"
   rx="0.73625112"
   ry="1.5776812"
   transform="rotate(50.054526)" /><ellipse
   style="fill:#fff6d5;stroke:#000000;stroke-width:0.75;stroke-dasharray:none;paint-order:normal"
   id="path8-2"
   cx="130.69513"
   cy="-7.6414218"
   rx="0.73641139"
   ry="1.5780246"
   transform="rotate(50.054526)" /><ellipse
   style="fill:#fff6d5;stroke:#000000;stroke-width:0.75;stroke-dasharray:none;paint-order:normal"
   id="path8-5"
   cx="119.40234"
   cy="6.1348734"
   rx="0.73641139"
   ry="1.5780246"
   transform="rotate(50.054526)" /><ellipse
   style="fill:#fff6d5;stroke:#000000;stroke-width:0.75;stroke-dasharray:none;paint-order:normal"
   id="path8"
   cx="131.21184"
   cy="4.6476593"
   rx="0.73641139"
   ry="1.5780246"
   transform="rotate(50.054526)" /><ellipse
   style="fill:#fff6d5;stroke:#000000;stroke-width:0.75;stroke-dasharray:none;paint-order:normal"
   id="path8-9"
   cx="120.11224"
   cy="20.180544"
   rx="0.73641139"
   ry="1.5780246"
   transform="rotate(50.054526)" /><path
   id="path4"
   style="fill:#ffdd55;fill-opacity:1;stroke:#000000;stroke-width:0.75;stroke-dasharray:none;paint-order:normal"
   d="m 39.892436,135.62267 c 0,0 -2.697478,15.19842 15.4557,14.99913 2.499739,-0.0274 53.272404,0.25647 54.099964,0.26548 18.15317,0.19926 15.20023,-15.26461 15.20023,-15.26461 -28.252251,-0.0334 -56.504017,-0.21199 -84.755894,0 z"
   sodipodi:nodetypes="csccc" /><path
   style="fill:#37c837;stroke:#000000;stroke-width:0.75;stroke-dasharray:none;paint-order:normal"
   d="m 36.068242,123.11603 c 0,0 -0.75,-4.875 12.187501,-4.125 12.9375,0.75 13.3125,3.5625 13.3125,3.5625 0,0 5.625,3 12.1875,-1.3125 6.562499,-4.3125 16.499999,2.8125 16.499999,2.8125 0,0 14.250008,0.9375 18.937508,-3.75 4.6875,-4.6875 15.75,0.1875 15.75,0.1875 0,0 -0.22532,4.12553 -1.87001,5.56601 -2.52453,2.21107 -6.31794,2.84743 -13.12999,1.37149 -10.910581,-2.36396 -23.062508,0.9375 -23.062508,0.9375 0,0 -14.062499,1.3125 -17.062499,-1.125 -3,-2.4375 -21.9375,1.3125 -21.9375,1.3125 0,0 -11.625001,-1.6875 -11.812501,-5.4375 z"
   id="path6"
   inkscape:label="path6"
   sodipodi:nodetypes="cscscscsscscc" /></svg>
