<?xml version="1.0" encoding="UTF-8" standalone="no"?>
<!-- http://code.google.com/p/vector-playing-cards/ -->

<svg
   width="167.08691pt"
   height="242.66701pt"
   viewBox="0 0 167.08691 242.66701"
   xml:space="preserve"
   id="svg2"
   version="1.1"
   inkscape:version="1.4.2 (f4327f4, 2025-05-13)"
   sodipodi:docname="burgerman.svg"
   inkscape:export-filename="back\burgerman.svgt.svg"
   inkscape:export-xdpi="215.44792"
   inkscape:export-ydpi="215.44792"
   xmlns:inkscape="http://www.inkscape.org/namespaces/inkscape"
   xmlns:sodipodi="http://sodipodi.sourceforge.net/DTD/sodipodi-0.dtd"
   xmlns="http://www.w3.org/2000/svg"
   xmlns:svg="http://www.w3.org/2000/svg"
   xmlns:rdf="http://www.w3.org/1999/02/22-rdf-syntax-ns#"
   xmlns:cc="http://creativecommons.org/ns#"
   xmlns:dc="http://purl.org/dc/elements/1.1/"><metadata
   id="metadata43"><rdf:RDF><cc:Work
       rdf:about=""><dc:format>image/svg+xml</dc:format><dc:type
         rdf:resource="http://purl.org/dc/dcmitype/StillImage" /></cc:Work></rdf:RDF></metadata><defs
   id="defs41"><inkscape:path-effect
     effect="mirror_symmetry"
     start_point="86.40195,102.40816"
     end_point="86.40195,118.08687"
     center_point="86.40195,110.24751"
     id="path-effect2"
     is_visible="true"
     lpeversion="1.2"
     lpesatellites=""
     mode="free"
     discard_orig_path="false"
     fuse_paths="false"
     oposite_fuse="false"
     split_items="false"
     split_open="false"
     link_styles="false" /></defs><sodipodi:namedview
   pagecolor="#ffffff"
   bordercolor="#666666"
   borderopacity="1"
   objecttolerance="10"
   gridtolerance="10"
   guidetolerance="10"
   inkscape:pageopacity="0"
   inkscape:pageshadow="2"
   inkscape:window-width="1920"
   inkscape:window-height="1009"
   id="namedview39"
   showgrid="false"
   inkscape:zoom="4"
   inkscape:cx="122.375"
   inkscape:cy="213.125"
   inkscape:window-x="1912"
   inkscape:window-y="-8"
   inkscape:window-maximized="1"
   inkscape:current-layer="svg2"
   inkscape:showpageshadow="0"
   inkscape:pagecheckerboard="0"
   inkscape:deskcolor="#505050"
   inkscape:document-units="pt"
   inkscape:lockguides="false"><inkscape:page
     x="0"
     y="0"
     width="167.08691"
     height="242.66702"
     id="page2"
     margin="0"
     bleed="0" /></sodipodi:namedview>
	




<path
   style="clip-rule:nonzero;fill:#ffffff;fill-rule:nonzero;stroke:#000000;stroke-width:1;stroke-miterlimit:4;stroke-dasharray:none"
   d="m 167.08691,235.79785 c 0,3.77735 -3.08691,6.86914 -6.87109,6.86914 H 7.36084 C 3.585938,242.66699 0.5,239.5752 0.5,235.79785 V 7.370117 C 0.5,3.592773 3.585938,0.5 7.36084,0.5 h 152.85498 c 3.78418,0 6.87109,3.092773 6.87109,6.870117 z"
   id="path5-2" /><path
   style="clip-rule:nonzero;fill:#815833;fill-opacity:1;fill-rule:nonzero;stroke:#000000;stroke-width:1;stroke-miterlimit:4;stroke-dasharray:none"
   d="m 153.27334,224.11903 c 0,3.42831 -2.61665,6.23439 -5.82436,6.23439 H 17.879245 c -3.199846,0 -5.815684,-2.80608 -5.815684,-6.23439 V 16.798853 c 0,-3.428304 2.615838,-6.235293 5.815684,-6.235293 H 147.44898 c 3.20771,0 5.82436,2.806989 5.82436,6.235293 z"
   id="path5-2-1" /><path
   style="fill:#d52820;fill-opacity:1;stroke:#000000;stroke-width:1;stroke-dasharray:none;paint-order:stroke fill markers"
   d="m 48.194004,115.0723 c 0,0 -1.797256,9.03813 5.551526,8.65957 7.34878,-0.37856 56.79329,0.2366 56.79329,0.2366 0,0 5.9327,1.04104 5.85284,-8.89617"
   id="path5"
   sodipodi:nodetypes="cscc" /><path
   style="fill:#923000;fill-opacity:1;stroke:#000000;stroke-width:1;stroke-dasharray:none;paint-order:stroke fill markers"
   d="m 40.390482,127.00307 c 0,0 0.0016,8.47197 4.55847,10.20019 4.556891,1.72824 69.413648,1.9547 72.454548,0 4.07385,-2.61866 4.25311,-9.93727 4.25311,-9.93727 z"
   id="path7"
   sodipodi:nodetypes="csscc" /><path
   style="fill:#37c837;stroke:#000000;stroke-width:1;stroke-dasharray:none;paint-order:stroke fill markers"
   d="m 37.554917,122.77091 c 0,0 -3.1875,-4.125 9.750001,-3.375 12.9375,0.75 12,4.5 12,4.5 0,0 6.9375,2.0625 13.5,-2.25 6.562499,-4.3125 16.499999,2.8125 16.499999,2.8125 0,0 14.250003,0.9375 18.937503,-3.75 4.6875,-4.6875 18.375,3.9375 18.375,3.9375 0,0 -6.375,5.625 -17.625,3.1875 -10.910576,-2.36396 -23.062503,0.9375 -23.062503,0.9375 0,0 -14.437499,0.9375 -17.437499,-1.5 -3,-2.4375 -21.5625,1.6875 -21.5625,1.6875 0,0 -9.937501,-1.3125 -9.375001,-6.1875 z"
   id="path6"
   inkscape:label="path6"
   sodipodi:nodetypes="cscscscscscc" /><path
   id="path10"
   style="fill:#ffdd55;stroke:#000000;stroke-width:1.07103;paint-order:stroke fill markers"
   d="M 82.160156 136.42969 L 82.160156 136.43115 L 39.818848 136.58496 C 39.818848 136.58496 41.786292 149.31195 46.158691 150.86572 C 49.154842 151.93043 78.129552 152.1138 82.157227 152.13428 L 82.157227 152.13574 C 82.196588 152.13556 82.241126 152.13599 82.291992 152.13574 C 82.342788 152.13599 82.388906 152.13556 82.428223 152.13574 L 82.428223 152.13428 C 86.455898 152.11382 115.43061 151.93043 118.42676 150.86572 C 122.79916 149.31195 124.7666 136.58496 124.7666 136.58496 L 82.425293 136.43115 L 82.425293 136.42969 L 82.291992 136.42969 L 82.160156 136.42969 z " /><path
   style="fill:#ffdd55;fill-opacity:1;stroke:#000000;stroke-width:1;stroke-dasharray:none;paint-order:stroke fill markers"
   id="path1"
   sodipodi:type="arc"
   sodipodi:cx="82.485176"
   sodipodi:cy="-115.8078"
   sodipodi:rx="42.611851"
   sodipodi:ry="28.244108"
   sodipodi:start="0"
   sodipodi:end="3.1415927"
   sodipodi:arc-type="slice"
   d="m 125.09703,-115.8078 a 42.611851,28.244108 0 0 1 -21.30593,24.460115 42.611851,28.244108 0 0 1 -42.61185,-10e-7 42.611851,28.244108 0 0 1 -21.305925,-24.460114 h 42.611851 z"
   transform="scale(1,-1)" /><ellipse
   style="fill:#fff6d5;stroke:#000000;stroke-width:1;stroke-dasharray:none;paint-order:stroke fill markers"
   id="path8-8"
   cx="145.82925"
   cy="-10.00463"
   rx="0.65625"
   ry="1.40625"
   transform="rotate(50.054526)" /><ellipse
   style="fill:#fff6d5;stroke:#000000;stroke-width:1;stroke-dasharray:none;paint-order:stroke fill markers"
   id="path8-2"
   cx="131.56602"
   cy="-8.7430792"
   rx="0.65625"
   ry="1.40625"
   transform="rotate(50.054526)" /><ellipse
   style="fill:#fff6d5;stroke:#000000;stroke-width:1;stroke-dasharray:none;paint-order:stroke fill markers"
   id="path8-5"
   cx="120.27312"
   cy="5.0333624"
   rx="0.65625"
   ry="1.40625"
   transform="rotate(50.054526)" /><ellipse
   style="fill:#fff6d5;stroke:#000000;stroke-width:1;stroke-dasharray:none;paint-order:stroke fill markers"
   id="path8"
   cx="132.08275"
   cy="3.5461321"
   rx="0.65625"
   ry="1.40625"
   transform="rotate(50.054526)" /><ellipse
   style="fill:#fff6d5;stroke:#000000;stroke-width:1;stroke-dasharray:none;paint-order:stroke fill markers"
   id="path8-9"
   cx="120.98303"
   cy="19.079182"
   rx="0.65625"
   ry="1.40625"
   transform="rotate(50.054526)" /></svg>
