<?xml version="1.0" encoding="UTF-8" standalone="no"?>
<!-- http://code.google.com/p/vector-playing-cards/ -->

<svg
   width="167.08691pt"
   height="242.66702pt"
   viewBox="0 0 167.08691 242.66702"
   xml:space="preserve"
   id="svg2"
   version="1.1"
   sodipodi:docname="firemon.svg"
   inkscape:version="1.4.2 (f4327f4, 2025-05-13)"
   xmlns:inkscape="http://www.inkscape.org/namespaces/inkscape"
   xmlns:sodipodi="http://sodipodi.sourceforge.net/DTD/sodipodi-0.dtd"
   xmlns="http://www.w3.org/2000/svg"
   xmlns:svg="http://www.w3.org/2000/svg"
   xmlns:rdf="http://www.w3.org/1999/02/22-rdf-syntax-ns#"
   xmlns:cc="http://creativecommons.org/ns#"
   xmlns:dc="http://purl.org/dc/elements/1.1/"><sodipodi:namedview
   id="namedview1"
   pagecolor="#505050"
   bordercolor="#eeeeee"
   borderopacity="1"
   inkscape:showpageshadow="0"
   inkscape:pageopacity="0"
   inkscape:pagecheckerboard="0"
   inkscape:deskcolor="#505050"
   inkscape:document-units="pt"
   inkscape:zoom="1.7636363"
   inkscape:cx="17.293815"
   inkscape:cy="177.75774"
   inkscape:window-width="1920"
   inkscape:window-height="1009"
   inkscape:window-x="1912"
   inkscape:window-y="-8"
   inkscape:window-maximized="1"
   inkscape:current-layer="svg2" /><metadata
   id="metadata43"><rdf:RDF><cc:Work
       rdf:about=""><dc:format>image/svg+xml</dc:format><dc:type
         rdf:resource="http://purl.org/dc/dcmitype/StillImage" /><dc:title /></cc:Work></rdf:RDF></metadata><defs
   id="defs41" />
	<path
   style="font-variation-settings:normal;clip-rule:nonzero;opacity:1;fill:#ffffff;fill-opacity:1;fill-rule:nonzero;stroke:#000000;stroke-width:0.75;stroke-linecap:butt;stroke-linejoin:miter;stroke-miterlimit:4;stroke-dasharray:none;stroke-dashoffset:0;stroke-opacity:1;stop-color:#000000;stop-opacity:1"
   d="m 166.59084,235.21044 c 0,3.76618 -3.07779,6.84884 -6.85079,6.84884 H 7.3366396 c -3.7637504,0 -6.84057131,-3.08266 -6.84057131,-6.84884 V 7.4575302 c 0,-3.7661847 3.07682091,-6.84982131 6.84057131,-6.84982131 H 159.74005 c 3.773,0 6.85079,3.08363661 6.85079,6.84982131 z"
   id="path5" />




















<path
   style="clip-rule:nonzero;fill:#550000;fill-rule:nonzero;stroke:#000000;stroke-width:1.5;stroke-miterlimit:4;stroke-dasharray:none"
   d="m 151.53995,221.11837 c 0,3.30014 -2.52,6.00133 -5.60921,6.00133 H 21.1478 c -3.081636,0 -5.600837,-2.70119 -5.600837,-6.00133 V 21.549142 c 0,-3.300132 2.519201,-6.002179 5.600837,-6.002179 h 124.78294 c 3.08921,0 5.60921,2.702047 5.60921,6.002179 z"
   id="path5-1" /><circle
   style="font-variation-settings:normal;opacity:1;fill:#aa0000;fill-opacity:1;stroke:#000000;stroke-width:1.5;stroke-linecap:butt;stroke-linejoin:miter;stroke-miterlimit:4;stroke-dasharray:none;stroke-dashoffset:0;stroke-opacity:1"
   id="path1"
   cx="84.196732"
   cy="121.18316"
   r="58.336311" /><path
   style="font-variation-settings:normal;opacity:1;fill:#ffcc00;fill-opacity:1;stroke:#000000;stroke-width:1.5;stroke-linecap:butt;stroke-linejoin:miter;stroke-miterlimit:4;stroke-dasharray:none;stroke-dashoffset:0;stroke-opacity:1"
   d="m 88.105865,161.77799 c 0,0 -48.112418,-0.9021 -36.685719,-34.88149 11.426699,-33.979398 1.804216,-1.80422 5.412647,5.11194 3.608432,6.91616 4.209837,-32.175168 21.650588,-29.76956 17.440754,2.40563 4.209839,-20.748478 4.209839,-20.748478 0,0 25.55972,13.83232 17.44075,23.154108 -8.118971,9.32178 -7.02289,26.01999 15.33583,10.82529 6.67346,-4.5352 8.69184,37.29399 -16.924006,42.48356 -11.739494,2.37833 -10.071308,-7.44991 -10.139226,-12.71401 -0.344042,-26.66554 -35.182206,5.11196 -0.300703,16.53864 z"
   id="path3" /></svg>
