<?xml version="1.0" encoding="UTF-8" standalone="no"?>
<!-- Created with Inkscape (http://www.inkscape.org/) -->

<svg
   width="240"
   height="336"
   viewBox="0 0 63.5 88.9"
   version="1.1"
   id="svg1"
   inkscape:version="1.4.2 (f4327f4, 2025-05-13)"
   sodipodi:docname="stardom.svg"
   xmlns:inkscape="http://www.inkscape.org/namespaces/inkscape"
   xmlns:sodipodi="http://sodipodi.sourceforge.net/DTD/sodipodi-0.dtd"
   xmlns="http://www.w3.org/2000/svg"
   xmlns:svg="http://www.w3.org/2000/svg">
  <sodipodi:namedview
     id="namedview1"
     pagecolor="#505050"
     bordercolor="#eeeeee"
     borderopacity="1"
     inkscape:showpageshadow="false"
     inkscape:pageopacity="0"
     inkscape:pagecheckerboard="0"
     inkscape:deskcolor="#505050"
     inkscape:document-units="px"
     inkscape:zoom="2"
     inkscape:cx="97.25"
     inkscape:cy="196.75"
     inkscape:window-width="1920"
     inkscape:window-height="1009"
     inkscape:window-x="1912"
     inkscape:window-y="-8"
     inkscape:window-maximized="1"
     inkscape:current-layer="layer1"
     labelstyle="default" />
  <defs
     id="defs1" />
  <g
     inkscape:label="base"
     inkscape:groupmode="layer"
     id="layer1">
    <rect
       style="fill:#f2f2f2;stroke:#000000;stroke-width:0.264583;stroke-linecap:butt;stroke-linejoin:miter;stroke-miterlimit:4;stroke-dasharray:none;paint-order:normal"
       id="rect1"
       width="63.235416"
       height="88.635414"
       x="0.1322915"
       y="0.13229166"
       rx="2.6458333"
       ry="2.6458333"
       inkscape:label="outer" />
    <rect
       style="fill:#b47800;fill-opacity:1;stroke:#000000;stroke-width:0.264583;stroke-linecap:butt;stroke-linejoin:miter;stroke-miterlimit:4;stroke-dasharray:none;paint-order:normal"
       id="rect2"
       width="57.943748"
       height="83.343758"
       x="2.7781248"
       y="2.778125"
       rx="2.645833"
       ry="2.6458333"
       inkscape:label="inner" />
  </g>
  <g
     inkscape:groupmode="layer"
     id="layer3"
     inkscape:label="main">
    <path
       style="fill:#ecd450;fill-opacity:1;stroke:#000000;stroke-width:0.352778;stroke-dasharray:none;stroke-opacity:1;paint-order:stroke fill markers"
       d="m 15.230796,38.987603 c 2.321135,-0.06316 2.610369,-0.082 5.091897,0.318245 1.246021,0.20097 2.470266,0.521285 3.712846,0.742568 1.33927,0.238499 2.68835,0.418293 4.03108,0.636486 1.48613,0.241497 2.963,0.543581 4.45541,0.742569 1.16143,0.154855 2.33742,0.177849 3.50068,0.318244 0.88881,0.107266 1.76369,0.313281 2.65203,0.424321 0.81005,0.101261 1.62777,0.128873 2.43987,0.212164 0.85079,0.08726 1.69321,0.252649 2.54595,0.318245 0.17628,0.01355 0.35703,-0.03468 0.5304,0 0.0148,0.0028 0.0397,0.492721 -0.10608,0.742569 -0.54321,0.93122 -1.19706,1.379908 -2.12162,2.015539 -2.48416,1.707864 -5.15294,3.140371 -7.95609,4.24325 -3.88867,1.529969 -4.77561,1.550871 -9.54731,2.652032 -2.50426,0.577906 -1.31247,0.462237 -3.557034,0.798921 -0.178308,0.02674 -0.335464,0.08252 -0.45416,0.261892 -0.513833,0.775899 -0.125972,-1.944578 -0.125972,-2.439871 0,-1.432849 -0.05208,-2.816363 0.212163,-4.243246 0.880552,-4.754983 3.186983,-9.706159 5.728383,-13.790556 0.40413,-0.649497 0.80037,-1.307958 1.27298,-1.909461 0.30895,-0.393216 0.69335,-0.721625 1.06081,-1.060813 0.0937,-0.08648 0.19729,-0.252478 0.31824,-0.212161 0.10064,0.03354 0,0.212161 0,0.318243 0,0.565767 -0.0995,1.140341 0,1.6973 0.17217,0.964117 1.65925,5.418178 1.6973,5.516222 1.74284,4.491168 4.47695,8.51705 7.10744,12.517578 2.11303,3.213562 6.96946,6.653992 4.94604,10.051196 -0.28679,0.481493 -0.91884,0.597348 -0.94148,0.570185 -0.16324,-0.195884 0.22274,-0.480392 0.23869,-0.967991 0.0248,-0.759153 -0.3708,-1.602228 -0.84865,-2.121623 -2.34616,-2.550178 -5.44234,-4.100223 -8.4865,-5.622304 -3.92596,-1.962979 -7.655,-4.095157 -11.350685,-6.470953 -1.220971,-0.78491 -2.380506,-1.663238 -3.60676,-2.439868 -0.896692,-0.567905 -1.831298,-1.073926 -2.758112,-1.591218 -0.593923,-0.331492 -1.288611,-0.510156 -2.047342,-0.950034 -0.758731,-0.439883 -0.872327,-0.593105 -1.172599,-0.766019 -0.0094,0.0011 -0.471818,-0.364631 -0.559915,-0.733467 1.495617,-0.01827 2.097894,0.276246 4.0981,0.221816 z"
       id="path34-5"
       sodipodi:nodetypes="ssssssssccssssssssssssssssssscsssscccs"
       inkscape:label="center" />
    <path
       style="fill:#ecd450;fill-opacity:1;stroke:#000000;stroke-width:0.352778;stroke-dasharray:none;stroke-opacity:1;paint-order:stroke fill markers"
       d="m 45.038464,9.8165378 c 1.67039,-0.05363 3.33386,0.06795 4.98581,0.3182442 1.54214,0.233656 2.99715,0.530406 4.5615,0.530406 0.1768,0 0.35703,-0.03468 0.5304,0 0.14297,0.02859 -0.008,0.316445 -0.10608,0.424325 -0.28642,0.315063 -0.6165,0.589999 -0.95473,0.848649 -1.82898,1.398635 -4.05483,1.933065 -6.25879,2.333786 -0.42324,0.07695 -0.88821,0.404544 -1.27297,0.212163 -0.17841,-0.0892 0.11155,-0.838823 0.42432,-1.379056 0.724,-1.250542 1.68203,-2.137819 2.65203,-3.1824362 0.54801,-0.590167 1.02049,-1.298416 1.37905,-2.015542 0.0922,-0.184418 0.17245,-0.676201 0.31825,-0.530406 0.12501,0.125018 0.26233,0.256595 0.31824,0.424324 0.0901,0.270456 0.0616,0.567054 0.10608,0.84865 0.16992,1.076174 0.1859,1.061863 0.42433,2.0155432 0.1228,0.491231 0.33929,1.081004 0.42432,1.591218 0.10447,0.626812 -0.0548,1.294169 -0.10608,1.909461 -0.0146,0.174661 0.0124,1.472743 0,1.485137 -0.05,0.05001 -0.15332,0.03923 -0.21216,0 -0.24965,-0.166434 -0.39965,-0.452279 -0.63649,-0.636487 -0.64649,-0.502825 -1.41963,-0.957862 -2.12162,-1.379056 -0.65433,-0.392597 -1.36084,-0.58061 -2.01554,-0.95473 -0.17903,-0.102297 -0.36547,-0.194533 -0.53041,-0.318244 -0.58101,-0.625253 -1.34606,-0.936531 -1.80338,-1.697299 -0.0902,-0.270455 -0.0658,-0.566431 -0.10608,-0.8486502 z"
       id="path36-5"
       sodipodi:nodetypes="cssscsssssssssssccssssssc"
       inkscape:label="topright" />
    <path
       style="fill:#ecd450;fill-opacity:1;stroke:#000000;stroke-width:0.352778;stroke-dasharray:none;stroke-opacity:1;paint-order:stroke fill markers"
       d="m 6.8516855,7.9071716 c 1.292443,-0.09399 2.482159,-0.178996 3.8189235,-0.106082 1.35943,0.07415 2.782545,0.13917 4.130732,0.627111 0.163034,0.05901 0.206881,0.103741 0.218597,0.115458 0.319907,0.319906 -1.213271,1.6826934 -1.591217,1.9094614 -0.574528,0.344717 -1.351892,0.370856 -1.909462,0.742569 -0.351685,0.407472 -0.858364,0.645427 -1.379056,0.742568 -0.1941295,-0.19413 0.343932,-2.0267204 0.424325,-2.2277054 0.105878,-0.264694 0.282884,-0.495046 0.424325,-0.742569 0.243724,-0.426517 0.560126,-0.816867 0.742569,-1.272974 0.141764,-0.354411 0.350578,-1.607385 0.742568,-1.80338 0.161122,-0.08056 0.419267,1.464907 0.424325,1.485137 0.321336,1.285343 0.636487,2.598811 0.636487,3.9250044 v 0.954731 c -0.0015,0.204513 0.03101,0.462282 0.05626,0.645863 0.01806,0.131269 -0.104809,-0.231735 -0.162339,-0.32762 C 13.067034,11.97193 12.520807,11.669092 11.943586,11.30177 11.14169,10.791473 10.294451,10.343788 9.5037175,9.8166326 8.5962685,9.2116656 7.7361415,8.5389246 6.8516875,7.9071716 Z"
       id="path37-1"
       sodipodi:nodetypes="csscssssssscscssssc"
       inkscape:label="topleft" />
    <path
       style="fill:#ecd450;fill-opacity:1;stroke:#000000;stroke-width:0.352778;stroke-dasharray:none;stroke-opacity:1;paint-order:stroke fill markers"
       d="m 47.584414,79.285102 c 0.56576,0 1.77459,0.245476 2.33378,0.331505 0.83074,0.127804 1.61766,0.462079 2.43987,0.636485 0.14906,0.03161 1.97191,-0.05005 1.6973,0.636489 -0.39243,0.798847 -1.48792,1.083959 -2.2277,1.591218 -0.20202,0.124319 -0.43913,0.186665 -0.63649,0.318241 -0.12483,0.08322 -0.19342,0.235027 -0.31825,0.318244 -0.18653,0.124354 -0.4305,0.194021 -0.63648,0.318244 -0.37289,0.224875 -0.32174,0.227517 -0.63649,0.424325 -0.25264,0.157967 -0.61584,0.38161 -0.95473,0.212164 -0.10769,-0.669427 0.069,-1.255818 0.42432,-1.803382 0.52698,-0.978669 1.10869,-1.916197 1.48514,-2.970273 0.28644,-0.802022 0.42432,-1.593705 0.42432,-2.439867 0,-0.07907 0.0622,-0.27795 0.10609,-0.212161 0.46807,0.702102 0.38009,2.492291 0.42432,3.288517 0.0197,0.354817 0.0707,0.707207 0.10608,1.06081 0.0354,0.636489 0.0806,1.272505 0.10608,1.909463 0.01,0.247325 0,0.495046 0,0.742569 0,1.367655 0.0865,0.36625 -0.63648,-0.212165 -0.18523,-0.14818 -0.44466,-0.178727 -0.63649,-0.318244 -0.60126,-0.437271 -1.00265,-1.145882 -1.48514,-1.697295 -0.23709,-0.270965 -0.65748,-0.559128 -0.94147,-1.074074 -0.12432,-0.225422 -0.50831,-0.81329 -0.43758,-1.060813 z"
       id="path38-7"
       sodipodi:nodetypes="cssssssssssssssccsssssc"
       inkscape:label="bottomright" />
    <path
       style="fill:#ecd450;fill-opacity:1;stroke:#000000;stroke-width:0.352778;stroke-dasharray:none;stroke-opacity:1;paint-order:stroke fill markers"
       d="m 7.8970665,78.154399 c 1.637517,0.470528 2.2351655,0.851426 2.8796245,1.037978 1.260406,0.364854 2.535898,0.679796 3.818923,0.95473 0.495045,0.10608 1.12714,-0.03975 1.485137,0.318244 0.07359,0.07359 -0.184454,0.519585 -0.318244,0.742569 -0.893887,1.489809 -2.438822,2.121101 -3.925004,2.864192 -0.394658,0.165499 -1.641926,1.239196 -1.545454,0.429535 0.06169,-0.328961 0.298907,-1.11888 0.696804,-1.914673 0.198144,-0.396289 0.453146,-0.763541 0.636487,-1.16689 0.171266,-0.376784 0.261289,-0.786476 0.424325,-1.166894 0.555177,-1.295414 1.317232,-2.457629 2.121624,-3.606761 0.275809,-0.394014 0.508564,-0.826808 0.84865,-1.166893 0.100014,-0.100013 0.01754,0.283975 0,0.424324 -0.06397,0.511715 -0.106082,0.966079 -0.106082,1.485138 0,1.26509 0.07426,2.556581 0,3.818922 -0.0376,0.6393 -0.172215,1.270303 -0.212162,1.909459 -0.06796,1.087342 -0.03628,2.173288 -0.653954,1.290754 -0.617676,-0.882537 -1.569104,-1.408003 -2.422401,-2.1394 -0.646576,-0.55421 -1.270906,-1.13387 -1.9094615,-1.697302 -0.394168,-0.347793 -0.647468,-0.842123 -1.060812,-1.16689 -0.546854,-0.429673 -1.059543,-0.62986 -1.788579,-1.132984 -0.729036,-0.503121 -0.606938,-0.587686 1.030579,-0.117158 z"
       id="path39-1"
       sodipodi:nodetypes="cssssscssssssssscssscc"
       inkscape:label="bottomleft" />
  </g>
</svg>
