<?xml version="1.0" encoding="UTF-8" standalone="no"?>
<!-- http://code.google.com/p/vector-playing-cards/ -->

<svg
   width="167.08691pt"
   height="242.66702pt"
   viewBox="0 0 167.08691 242.66702"
   xml:space="preserve"
   id="svg2"
   version="1.1"
   sodipodi:docname="stardom.svg"
   inkscape:version="1.4.2 (f4327f4, 2025-05-13)"
   xmlns:inkscape="http://www.inkscape.org/namespaces/inkscape"
   xmlns:sodipodi="http://sodipodi.sourceforge.net/DTD/sodipodi-0.dtd"
   xmlns="http://www.w3.org/2000/svg"
   xmlns:svg="http://www.w3.org/2000/svg"
   xmlns:rdf="http://www.w3.org/1999/02/22-rdf-syntax-ns#"
   xmlns:cc="http://creativecommons.org/ns#"
   xmlns:dc="http://purl.org/dc/elements/1.1/"><sodipodi:namedview
   id="namedview1"
   pagecolor="#505050"
   bordercolor="#eeeeee"
   borderopacity="1"
   inkscape:showpageshadow="0"
   inkscape:pageopacity="0"
   inkscape:pagecheckerboard="0"
   inkscape:deskcolor="#505050"
   inkscape:document-units="pt"
   inkscape:zoom="2.4941584"
   inkscape:cx="146.54242"
   inkscape:cy="154.56116"
   inkscape:window-width="1920"
   inkscape:window-height="1009"
   inkscape:window-x="1912"
   inkscape:window-y="-8"
   inkscape:window-maximized="1"
   inkscape:current-layer="svg2" /><metadata
   id="metadata43"><rdf:RDF><cc:Work
       rdf:about=""><dc:format>image/svg+xml</dc:format><dc:type
         rdf:resource="http://purl.org/dc/dcmitype/StillImage" /><dc:title /></cc:Work></rdf:RDF></metadata><defs
   id="defs41" />
	<path
   style="clip-rule:nonzero;fill:#ffffff;fill-rule:nonzero;stroke:#000000;stroke-width:0.5;stroke-miterlimit:4"
   d="m 166.83691,235.54785 c 0,3.77735 -3.08691,6.86914 -6.87109,6.86914 H 7.1108398 C 3.3359375,242.41699 0.25,239.3252 0.25,235.54785 V 7.1201172 C 0.25,3.3427734 3.3359375,0.25 7.1108398,0.25 H 159.96582 c 3.78418,0 6.87109,3.0927734 6.87109,6.8701172 z"
   id="path5" /><path
   d="m 11.012538,5.7408556 c -3.5710462,0 -6.4893656,2.9533552 -6.4893656,6.5599294 V 230.4018 c 0,3.60657 2.9183194,6.55848 6.4893656,6.55848 H 155.61261 c 3.57984,0 6.50112,-2.95191 6.50112,-6.55848 V 12.300785 c 0,-3.6065742 -2.92128,-6.5599294 -6.50112,-6.5599294 z"
   style="fill:#b47800;stroke:#000000;stroke-width:0.5;stroke-dasharray:none"
   id="path21" />




















<path
   style="fill:#f8f070;stroke:none;stroke-width:0.666667;-inkscape-stroke:none"
   d="m 79.385489,65.753638 1.603748,4.009368"
   id="path8" /><path
   style="opacity:1;fill:#ecd450;fill-opacity:1;stroke:#000000;stroke-width:0.5;stroke-dasharray:none;stroke-opacity:1;paint-order:stroke fill markers"
   d="m 36.685718,105.84732 c 6.579596,-0.17904 7.399472,-0.23245 14.433726,0.90211 3.532026,0.56968 7.002333,1.47766 10.524591,2.10492 3.796359,0.67606 7.620539,1.18571 11.426699,1.80421 4.212648,0.68456 8.399043,1.54086 12.629508,2.10492 3.292238,0.43896 6.625748,0.50414 9.92319,0.90211 2.519445,0.30406 4.999428,0.88804 7.517568,1.2028 2.29621,0.28704 4.61415,0.36531 6.91615,0.60141 2.41169,0.24735 4.79966,0.71617 7.21687,0.90211 0.49969,0.0384 1.01207,-0.0983 1.50351,0 0.0419,0.008 0.11243,1.39669 -0.3007,2.10492 -1.53981,2.63968 -3.39326,3.91155 -6.01405,5.71334 -7.04171,4.84119 -14.606763,8.90184 -22.552698,12.02811 -11.023005,4.33692 -13.53717,4.39617 -27.063237,7.51757 -7.098692,1.63816 -3.861336,0.84983 -10.223888,1.80421 -0.505441,0.0758 -0.992417,0.30071 -1.503513,0.30071 -0.02493,-0.81387 0,-1.83374 0,-2.70633 v -3.30773 c 0,-4.06162 -0.147616,-7.98339 0.601405,-12.0281 2.496054,-13.47869 9.033959,-27.51352 16.237941,-39.09134 1.145569,-1.841093 2.268749,-3.707595 3.608431,-5.412645 0.875778,-1.114628 1.965423,-2.04555 3.007026,-3.007028 0.265558,-0.24513 0.559253,-0.715687 0.902108,-0.601402 0.28527,0.09508 0,0.601402 0,0.902107 0,1.603748 -0.281925,3.232463 0,4.811243 0.488025,2.732932 4.703392,15.358615 4.811242,15.636535 4.94034,12.73087 12.690578,24.14282 20.147073,35.4829 5.98968,9.10931 13.57092,18.45224 15.63654,29.46886 0.0185,0.0985 -0.23654,0.077 -0.30071,0 -0.46272,-0.55527 -0.80187,-1.20281 -1.2028,-1.80422 -1.19432,-1.79147 -3.15602,-4.84245 -4.51055,-6.31475 -6.65053,-7.22885 -15.427085,-11.62268 -24.056202,-15.93724 -11.128707,-5.56435 -21.699234,-11.60832 -32.17518,-18.34286 -3.46102,-2.22494 -6.747891,-4.71469 -10.223889,-6.91616 -2.541804,-1.60981 -5.191081,-3.0442 -7.818268,-4.51054 -1.683563,-0.93966 -3.652757,-1.44611 -5.80349,-2.69301 -2.150733,-1.24691 -2.47274,-1.68124 -3.323903,-2.17139 -0.02655,0.003 -1.337437,-1.0336 -1.587161,-2.07912 4.239543,-0.0518 5.946787,0.78306 11.616661,0.62877 z"
   id="path34"
   sodipodi:nodetypes="ssssssssccsssssscssssssssssssscsssscccs" /><path
   style="opacity:1;fill:#ecd450;fill-opacity:1;stroke:#000000;stroke-width:0.5;stroke-dasharray:none;stroke-opacity:1;paint-order:stroke fill markers"
   d="m 119.67964,24.657614 c 4.73496,-0.152013 9.45033,0.192609 14.13302,0.902108 4.37141,0.662334 8.49586,1.503513 12.93022,1.503513 0.50116,0 1.01207,-0.09829 1.50351,0 0.40525,0.08105 -0.0227,0.897011 -0.30071,1.202811 -0.81189,0.893092 -1.74754,1.67244 -2.70632,2.40562 -5.18452,3.964634 -11.49399,5.479555 -17.74145,6.615458 -1.19973,0.218133 -2.51777,1.146738 -3.60843,0.601405 -0.50571,-0.252853 0.31623,-2.377765 1.20281,-3.909134 2.05228,-3.544845 4.76795,-6.059959 7.51756,-9.021078 1.55342,-1.672915 2.89273,-3.680551 3.90913,-5.71335 0.26138,-0.522758 0.48884,-1.916789 0.90211,-1.503513 0.35438,0.354382 0.74362,0.727358 0.90211,1.20281 0.25555,0.766645 0.17466,1.607396 0.3007,2.405621 0.48167,3.050573 0.52697,3.010007 1.20281,5.71335 0.34812,1.392468 0.96177,3.064265 1.20282,4.510539 0.29613,1.77679 -0.15537,3.668511 -0.30071,5.412647 -0.0413,0.495103 0.0351,4.174705 0,4.209837 -0.14175,0.141752 -0.4346,0.111199 -0.6014,0 -0.70768,-0.471782 -1.13286,-1.28205 -1.80422,-1.804216 -1.83257,-1.42533 -4.02416,-2.715199 -6.01405,-3.909134 -1.85479,-1.112873 -3.85748,-1.645823 -5.71335,-2.706323 -0.50746,-0.289974 -1.03595,-0.551432 -1.50351,-0.902109 -1.64696,-1.772369 -3.8156,-2.654733 -5.11195,-4.811241 -0.25555,-0.766644 -0.18642,-1.605629 -0.3007,-2.405621 z"
   id="path36"
   sodipodi:nodetypes="cssscsssssssssssccssssssc" /><path
   style="opacity:1;fill:#ecd450;fill-opacity:1;stroke:#000000;stroke-width:0.5;stroke-dasharray:none;stroke-opacity:1;paint-order:stroke fill markers"
   d="m 14.433725,19.244967 c 3.663617,-0.266433 7.036041,-0.507389 10.825294,-0.300703 3.8535,0.210191 7.887529,0.394498 11.709162,1.777637 0.462142,0.167261 0.586432,0.294069 0.619645,0.327282 0.906822,0.906822 -3.439194,4.76984 -4.510539,5.412647 -1.628582,0.977149 -3.832134,1.051243 -5.412647,2.104918 -0.996903,1.15504 -2.433158,1.829558 -3.909134,2.104918 -0.550289,-0.550289 0.974923,-5.745034 1.202811,-6.314755 0.300126,-0.750314 0.801874,-1.403278 1.20281,-2.104918 0.690872,-1.209027 1.587758,-2.315529 2.104919,-3.608431 0.401851,-1.00463 0.993765,-4.556368 2.104917,-5.111944 0.456726,-0.228363 1.188475,4.152493 1.202811,4.209836 0.910874,3.643494 1.804215,7.366711 1.804215,11.125996 v 2.706324 c -0.0043,0.579722 0.08789,1.310406 0.159472,1.830794 0.05118,0.3721 -0.297095,-0.656887 -0.460174,-0.928686 -1.025259,-1.708766 -2.57362,-2.567203 -4.209837,-3.608432 -2.273089,-1.446511 -4.674713,-2.715538 -6.916159,-4.209836 -2.572299,-1.714866 -5.010452,-3.621851 -7.517566,-5.412647 z"
   id="path37"
   sodipodi:nodetypes="csscssssssscscssssc" /><path
   style="opacity:1;fill:#ecd450;fill-opacity:1;stroke:#000000;stroke-width:0.5;stroke-dasharray:none;stroke-opacity:1;paint-order:stroke fill markers"
   d="m 126.8965,220.07672 c 1.60375,0 5.03036,0.69584 6.61546,0.9397 2.35484,0.36228 4.58548,1.30983 6.91616,1.80421 0.42254,0.0896 5.58968,-0.14187 4.81124,1.80422 -1.11239,2.26445 -4.21771,3.07264 -6.31475,4.51054 -0.57265,0.3524 -1.24476,0.52913 -1.80422,0.9021 -0.35383,0.2359 -0.54827,0.66622 -0.90211,0.90211 -0.52875,0.3525 -1.22031,0.54998 -1.80421,0.90211 -1.05699,0.63744 -0.91202,0.64493 -1.80422,1.20281 -0.71613,0.44778 -1.74568,1.08173 -2.70633,0.60141 -0.30524,-1.89759 0.19572,-3.5598 1.20282,-5.11195 1.49379,-2.77418 3.14272,-5.43174 4.20984,-8.41967 0.81194,-2.27345 1.2028,-4.51759 1.2028,-6.91616 0,-0.22413 0.17638,-0.78789 0.30071,-0.6014 1.32681,1.99021 1.07742,7.06476 1.20281,9.32178 0.0559,1.00578 0.20047,2.00468 0.3007,3.00702 0.10023,1.80422 0.22848,3.6071 0.3007,5.41265 0.0281,0.70108 0,1.40328 0,2.10492 0,3.87682 0.24528,1.03819 -1.80421,-0.60141 -0.52506,-0.42004 -1.26043,-0.50663 -1.80422,-0.90211 -1.70434,-1.23951 -2.84215,-3.24817 -4.20984,-4.81123 -0.67207,-0.76809 -1.86373,-1.58493 -2.66873,-3.04462 -0.3524,-0.63899 -1.44087,-2.30539 -1.2404,-3.00703 z"
   id="path38"
   sodipodi:nodetypes="cssssssssssssssccsssssc" /><path
   style="opacity:1;fill:#ecd450;fill-opacity:1;stroke:#000000;stroke-width:0.5;stroke-dasharray:none;stroke-opacity:1;paint-order:stroke fill markers"
   d="m 17.397009,216.87131 c 4.641781,1.33378 6.335902,2.41349 8.162713,2.9423 3.572806,1.03423 7.188372,1.92698 10.825294,2.70632 1.403279,0.3007 3.195042,-0.11268 4.209837,0.90211 0.208601,0.2086 -0.52286,1.47284 -0.902108,2.10492 -2.533852,4.22308 -6.913196,6.01257 -11.125997,8.11897 -0.522758,0.26138 -0.969426,0.66473 -1.503513,0.90211 -0.81392,0.36174 -2.041112,0.98296 -2.59356,1.25919 -0.323245,0.16161 -0.458621,-0.0112 -0.283741,-0.94372 0.17488,-0.93249 0.847297,-3.17163 1.975193,-5.42742 0.561669,-1.12334 1.284508,-2.16437 1.804216,-3.30772 0.485478,-1.06805 0.74066,-2.22938 1.20281,-3.30773 1.573731,-3.67204 3.733885,-6.96651 6.014052,-10.22389 0.781821,-1.11689 1.4416,-2.34371 2.405622,-3.30773 0.283505,-0.2835 0.04973,0.80497 0,1.20281 -0.181317,1.45053 -0.300703,2.73849 -0.300703,4.20984 0,3.58608 0.210487,7.247 0,10.82529 -0.106599,1.81219 -0.488169,3.60086 -0.601406,5.41264 -0.192639,3.08223 -0.102837,6.1605 -1.853728,3.65883 -1.750891,-2.50168 -4.447852,-3.99119 -6.866647,-6.06444 -1.832815,-1.57099 -3.602569,-3.21412 -5.412647,-4.81125 -1.117325,-0.98587 -1.835342,-2.38712 -3.007026,-3.30772 -1.550136,-1.21797 -3.00343,-1.78543 -5.069988,-3.21161 -2.066558,-1.42617 -1.720455,-1.66588 2.921327,-0.3321 z"
   id="path39"
   sodipodi:nodetypes="cssssssscssssssssscssscc" /></svg>
