<?xml version="1.0" encoding="UTF-8" standalone="no"?>
<!-- http://code.google.com/p/vector-playing-cards/ -->

<svg
   width="167.0869141pt"
   height="242.6669922pt"
   viewBox="0 0 167.0869141 242.6669922"
   xml:space="preserve"
   id="svg2"
   version="1.1"
   inkscape:version="0.48.0 r9654"
   sodipodi:docname="black_joker.svg"
   inkscape:export-filename="/home/byron/art/cards/final/PNGs/black_joker.png"
   inkscape:export-xdpi="215.44792"
   inkscape:export-ydpi="215.44792"
   xmlns:inkscape="http://www.inkscape.org/namespaces/inkscape"
   xmlns:sodipodi="http://sodipodi.sourceforge.net/DTD/sodipodi-0.dtd"
   xmlns="http://www.w3.org/2000/svg"
   xmlns:svg="http://www.w3.org/2000/svg"
   xmlns:rdf="http://www.w3.org/1999/02/22-rdf-syntax-ns#"
   xmlns:cc="http://creativecommons.org/ns#"
   xmlns:dc="http://purl.org/dc/elements/1.1/"><metadata
   id="metadata43"><rdf:RDF><cc:Work
       rdf:about=""><dc:format>image/svg+xml</dc:format><dc:type
         rdf:resource="http://purl.org/dc/dcmitype/StillImage" /><dc:title /></cc:Work></rdf:RDF></metadata><defs
   id="defs41" /><sodipodi:namedview
   pagecolor="#ffffff"
   bordercolor="#666666"
   borderopacity="1"
   objecttolerance="10"
   gridtolerance="10"
   guidetolerance="10"
   inkscape:pageopacity="0"
   inkscape:pageshadow="2"
   inkscape:window-width="1680"
   inkscape:window-height="977"
   id="namedview39"
   showgrid="false"
   inkscape:zoom="2.4336873"
   inkscape:cx="117.85966"
   inkscape:cy="152.384"
   inkscape:window-x="0"
   inkscape:window-y="25"
   inkscape:window-maximized="1"
   inkscape:current-layer="svg2"
   inkscape:showpageshadow="0"
   inkscape:pagecheckerboard="0"
   inkscape:deskcolor="#505050"
   inkscape:document-units="pt" />
	<g
   id="Layer_x0020_1"
   style="fill-rule:nonzero;clip-rule:nonzero;stroke:#000000;stroke-miterlimit:4;">
		<path
   style="fill:#FFFFFF;stroke-width:0.5;"
   d="M166.8369141,235.5478516c0,3.7773438-3.0869141,6.8691406-6.8710938,6.8691406H7.1108398c-3.7749023,0-6.8608398-3.0917969-6.8608398-6.8691406V7.1201172C0.25,3.3427734,3.3359375,0.25,7.1108398,0.25h152.8549805    c3.7841797,0,6.8710938,3.0927734,6.8710938,6.8701172v228.4277344z"
   id="path5" />
		<g
   style="stroke:none;"
   id="g7">
			<g
   id="g9">
				
			</g>
			
		</g>
		<g
   id="g15">
			
		</g>
		<g
   id="g19">
			
		</g>
		<g
   style="stroke:none;"
   id="g23">
			<g
   id="g25">
				
			</g>
			
		</g>
		<g
   style="stroke:none;"
   id="g31">
			<g
   id="g33">
				
			</g>
			
		</g>
	</g>
<path
   style="font-style:italic;font-weight:bold;font-size:32px;line-height:1.25;font-family:LMMathSymbols9;-inkscape-font-specification:'LMMathSymbols9 Bold Italic';letter-spacing:0px;word-spacing:0px"
   d="m 18.788382,19.683973 q -0.953125,4.09375 -3.578125,6.0625 -2.625,1.96875 -7.1875004,1.96875 -1.671875,0 -3.015625,-0.125 -1.34375,-0.109375 -2.40625,-0.328125 l 1.109375,-4.8125 h 0.5625 q 0.671875,0.265625 1.421875,0.515625 0.765625,0.25 2.03125,0.25 2.3906254,0 3.5781254,-1.140625 1.1875,-1.140625 1.9375,-4.4375 l 2.140625,-9.2656247 h -5.3125 l 0.984375,-4.28125 h 11.34375 z"
   id="text3788"
   aria-label="J" />







<g
   transform="matrix(2.2711763,2.2711763,-2.0765626,2.0765626,117.0668,94.436511)"
   id="layer1-7-88"><path
     id="sl-4"
     d="M 7.989,3.103 C 7.747,-0.954 0.242,-8.59 0,-10.5 c -0.242,1.909 -7.747,9.545 -7.989,13.603 -0.169,2.868 1.695,4.057 3.39,4.057 1.8351685,-0.021581 3.3508701,-2.8006944 3.873,-3.341 0.242,0.716 -1.603,6.682 -2.179,6.682 l 5.811,0 C 2.33,10.501 0.485,4.535 0.727,3.819 1.1841472,4.3152961 2.5241276,7.0768295 4.601,7.16 6.295,7.159 8.158,5.971 7.989,3.103 z"
     inkscape:connector-curvature="0"
     style="fill:#000000"
     sodipodi:nodetypes="cccccccccc" /></g>

<path
   style="font-style:italic;font-weight:bold;font-size:38.4px;line-height:1.25;font-family:'URW Chancery L';-inkscape-font-specification:'URW Chancery L Bold Italic';letter-spacing:0px;word-spacing:0px"
   d="m 29.304602,35.701322 q 0,2.962501 -0.99375,5.550001 -0.99375,2.5875 -2.79375,4.44375 -1.875001,1.93125 -4.350001,2.98125 -2.475,1.03125 -5.775,1.03125 -4.70625,0 -7.2187501,-2.25 -2.5125001,-2.25 -2.5125001,-6.225 0,-2.8125 0.9375,-5.343751 0.9375,-2.53125 2.7750001,-4.4625 1.7812501,-1.89375 4.3687501,-2.98125 2.60625,-1.10625 5.83125,-1.10625 4.725001,0 7.218751,2.23125 2.5125,2.2125 2.5125,6.13125 z m -8.775001,6.900001 q 0.8625,-1.3125 1.29375,-2.86875 0.45,-1.55625 0.45,-3.787501 0,-1.93125 -0.84375,-2.9625 -0.84375,-1.05 -2.68125,-1.05 -1.425,0 -2.5125,0.69375 -1.06875,0.69375 -1.89375,1.96875 -0.76875,1.18125 -1.21875,2.925 -0.43125,1.743751 -0.43125,3.581251 0,2.15625 0.95625,3.09375 0.95625,0.91875 2.625,0.91875 1.21875,0 2.34375,-0.65625 1.125,-0.675 1.9125,-1.85625 z"
   id="text3019"
   aria-label="o" />



<path
   style="font-style:italic;font-weight:bold;font-size:38.4px;line-height:1.25;font-family:'URW Chancery L';-inkscape-font-specification:'URW Chancery L Bold Italic';letter-spacing:0px;word-spacing:0px"
   d="m 25.973506,76.992462 h -7.106251 l -4.14375,-9.3 -2.98125,2.6625 -1.55625,6.6375 H 3.3985048 L 10.129755,47.817461 h 6.7875 l -4.0125,17.418751 9.412501,-9.300001 h 7.78125 l -9.750001,9.168751 z"
   id="text3023"
   aria-label="k" />



<path
   style="font-style:italic;font-weight:bold;font-size:38.4px;line-height:1.25;font-family:'URW Chancery L';-inkscape-font-specification:'URW Chancery L Bold Italic';letter-spacing:0px;word-spacing:0px"
   d="m 20.423506,86.107882 q 0.05625,-0.3375 0.075,-0.61875 0.0375,-0.28125 0.0375,-0.58125 0,-1.48125 -0.91875,-2.26875 -0.91875,-0.7875 -2.64375,-0.7875 -2.08125,0 -3.50625,1.125 -1.40625,1.125 -2.1375,3.13125 z m -5.15625,13.800001 q -5.3812505,0 -8.3062506,-2.38125 -2.9250001,-2.38125 -2.9250001,-6.581251 0,-2.86875 0.9562501,-5.26875 0.95625,-2.4 2.7562501,-4.21875 1.725,-1.7625 4.3125005,-2.79375 2.5875,-1.03125 5.68125,-1.03125 4.70625,0 7.0875,1.9125 2.4,1.89375 2.4,5.60625 0,1.275 -0.2625,2.49375 -0.24375,1.21875 -0.65625,2.41875 h -15.6375 q 0,0.1125 0,0.225 0,0.09375 0,0.20625 0,2.19375 1.5375,3.43125 1.5375,1.237501 4.70625,1.237501 2.2125,0 4.18125,-0.750001 1.9875,-0.75 3.45,-1.66875 h 0.75 l -1.25625,5.418751 q -1.96875,0.8625 -4.14375,1.29375 -2.175,0.45 -4.63125,0.45 z"
   id="text3027"
   aria-label="e" />



<path
   style="font-style:italic;font-weight:bold;font-size:38.4px;line-height:1.25;font-family:'URW Chancery L';-inkscape-font-specification:'URW Chancery L Bold Italic';letter-spacing:0px;word-spacing:0px"
   d="m 21.726037,105.7584 h -0.6 q -0.45,-0.15 -1.275,-0.225 -0.825,-0.075 -1.63125,-0.075 -1.331251,0 -2.568751,0.20625 -1.2375,0.1875 -2.55,0.61875 l -3.2624998,14.1 H 3.0510359 L 7.9260361,99.327149 h 6.7874999 l -0.7125,3.093751 q 1.9125,-1.40625 3.80625,-2.2875 1.912501,-0.881251 3.843751,-0.881251 0.35625,0 0.7875,0.01875 0.45,0.01875 0.7875,0.05625 z"
   id="text3031"
   aria-label="r" />



<g
   transform="matrix(2.374378,-2.374378,2.2221918,2.2221918,59.383523,95.635421)"
   id="layer1-9"><path
     style="fill:#df0000"
     inkscape:connector-curvature="0"
     id="hl"
     d="M 3.676,-9 C 0.433,-9 0,-5.523 0,-5.523 0,-5.523 -0.433,-9 -3.676,-9 -5.946,-9 -8,-7.441 -8,-4.5 -8,-0.614 -1.4208493,3.2938141 0,9 1.35201,3.2985969 8,-0.614 8,-4.5 8,-7.441 5.946,-9 3.676,-9 z"
     sodipodi:nodetypes="scsscss" /></g><g
   transform="matrix(-2.145754,-2.145754,2.145754,-2.145754,110.19878,305.77847)"
   id="layer1-1"><path
     id="cl"
     d="m 50.291466,22.698228 c 0,0 2.375,-1.9 2.375,-4.534 0,-1.542 -1.369,-4.102 -4.534,-4.102 -3.165,0 -4.534,2.561 -4.534,4.102 0,2.634 2.375,4.534 2.375,4.534 -2.638,-2.055 -7.341,-0.652 -7.341,3.455 0,2.056 1.68,4.318 4.318,4.318 3.165,0 4.534,-3.455 4.534,-3.455 0,0 0.402,3.938 -1.943,6.046 h 5.182 c -2.345,-2.107 -1.943,-6.046 -1.943,-6.046 0,0 1.369,3.455 4.534,3.455 2.639,0 4.318,-2.263 4.318,-4.318 0,-4.107 -4.703,-5.51 -7.341,-3.455 z"
     inkscape:connector-curvature="0"
     style="fill:#000000" /></g><g
   transform="matrix(2.235014,-2.235014,2.235014,2.235014,117.78936,156.16707)"
   id="layer1-2"><path
     style="fill:#df0000"
     inkscape:connector-curvature="0"
     id="dl"
     d="M 3.2433274,-4.7253274 C 1.1263274,-7.5893274 0,-10.5 0,-10.5 c 0,0 -1.1263274,2.9106726 -3.2433274,5.7746726 C -5.3613274,-1.8623274 -8,0 -8,0 -8,0 -5.3613274,1.8613274 -3.2433274,4.7263274 -1.1263274,7.5893274 0,10.5 0,10.5 0,10.5 1.1263274,7.5893274 3.2433274,4.7263274 5.3613274,1.8613274 8,0 8,0 8,0 5.3613274,-1.8623274 3.2433274,-4.7253274 z"
     sodipodi:nodetypes="ccccccccc" /></g>









<path
   style="font-style:italic;font-weight:bold;font-size:32px;line-height:1.25;font-family:LMMathSymbols9;-inkscape-font-specification:'LMMathSymbols9 Bold Italic';letter-spacing:0px;word-spacing:0px"
   d="m -148.87224,-222.67383 q -0.95312,4.09375 -3.57812,6.0625 -2.625,1.96875 -7.1875,1.96875 -1.67188,0 -3.01563,-0.125 -1.34375,-0.10937 -2.40625,-0.32812 l 1.10938,-4.8125 h 0.5625 q 0.67187,0.26562 1.42187,0.51562 0.76563,0.25 2.03125,0.25 2.39063,0 3.57813,-1.14062 1.1875,-1.14063 1.9375,-4.4375 l 2.14062,-9.26563 h -5.3125 l 0.98438,-4.28125 h 11.34375 z"
   id="text3788-8"
   transform="scale(-1)"
   aria-label="J" />

<path
   style="font-style:italic;font-weight:bold;font-size:38.4px;line-height:1.25;font-family:'URW Chancery L';-inkscape-font-specification:'URW Chancery L Bold Italic';letter-spacing:0px;word-spacing:0px"
   d="m -138.35602,-206.65647 q 0,2.9625 -0.99375,5.55 -0.99375,2.5875 -2.79375,4.44375 -1.875,1.93125 -4.35,2.98125 -2.475,1.03125 -5.775,1.03125 -4.70625,0 -7.21875,-2.25 -2.5125,-2.25 -2.5125,-6.225 0,-2.8125 0.9375,-5.34375 0.9375,-2.53125 2.775,-4.4625 1.78125,-1.89375 4.36875,-2.98125 2.60625,-1.10625 5.83125,-1.10625 4.725,0 7.21875,2.23125 2.5125,2.2125 2.5125,6.13125 z m -8.775,6.9 q 0.8625,-1.3125 1.29375,-2.86875 0.45,-1.55625 0.45,-3.7875 0,-1.93125 -0.84375,-2.9625 -0.84375,-1.05 -2.68125,-1.05 -1.425,0 -2.5125,0.69375 -1.06875,0.69375 -1.89375,1.96875 -0.76875,1.18125 -1.21875,2.925 -0.43125,1.74375 -0.43125,3.58125 0,2.15625 0.95625,3.09375 0.95625,0.91875 2.625,0.91875 1.21875,0 2.34375,-0.65625 1.125,-0.675 1.9125,-1.85625 z"
   id="text3019-4"
   transform="scale(-1)"
   aria-label="o" />

<path
   style="font-style:italic;font-weight:bold;font-size:38.4px;line-height:1.25;font-family:'URW Chancery L';-inkscape-font-specification:'URW Chancery L Bold Italic';letter-spacing:0px;word-spacing:0px"
   d="m -141.6871,-165.36533 h -7.10625 l -4.14375,-9.3 -2.98125,2.6625 -1.55625,6.6375 h -6.7875 l 6.73125,-29.175 h 6.7875 l -4.0125,17.41875 9.4125,-9.3 h 7.78125 l -9.75,9.16875 z"
   id="text3023-1"
   transform="scale(-1)"
   aria-label="k" />

<path
   style="font-style:italic;font-weight:bold;font-size:38.4px;line-height:1.25;font-family:'URW Chancery L';-inkscape-font-specification:'URW Chancery L Bold Italic';letter-spacing:0px;word-spacing:0px"
   d="m -147.2371,-156.24991 q 0.0563,-0.3375 0.075,-0.61875 0.0375,-0.28125 0.0375,-0.58125 0,-1.48125 -0.91875,-2.26875 -0.91875,-0.7875 -2.64375,-0.7875 -2.08125,0 -3.50625,1.125 -1.40625,1.125 -2.1375,3.13125 z m -5.15625,13.8 q -5.38125,0 -8.30625,-2.38125 -2.925,-2.38125 -2.925,-6.58125 0,-2.86875 0.95625,-5.26875 0.95625,-2.4 2.75625,-4.21875 1.725,-1.7625 4.3125,-2.79375 2.5875,-1.03125 5.68125,-1.03125 4.70625,0 7.0875,1.9125 2.4,1.89375 2.4,5.60625 0,1.275 -0.2625,2.49375 -0.24375,1.21875 -0.65625,2.41875 h -15.6375 q 0,0.1125 0,0.225 0,0.0937 0,0.20625 0,2.19375 1.5375,3.43125 1.5375,1.2375 4.70625,1.2375 2.2125,0 4.18125,-0.75 1.9875,-0.75 3.45,-1.66875 h 0.75 l -1.25625,5.41875 q -1.96875,0.8625 -4.14375,1.29375 -2.175,0.45 -4.63125,0.45 z"
   id="text3027-9"
   transform="scale(-1)"
   aria-label="e" />

<path
   style="font-style:italic;font-weight:bold;font-size:38.4px;line-height:1.25;font-family:'URW Chancery L';-inkscape-font-specification:'URW Chancery L Bold Italic';letter-spacing:0px;word-spacing:0px"
   d="m -145.93457,-136.59939 h -0.6 q -0.45,-0.15 -1.275,-0.225 -0.825,-0.075 -1.63125,-0.075 -1.33125,0 -2.56875,0.20625 -1.2375,0.1875 -2.55,0.61875 l -3.2625,14.1 h -6.7875 l 4.875,-21.05625 h 6.7875 l -0.7125,3.09375 q 1.9125,-1.40625 3.80625,-2.2875 1.9125,-0.88125 3.84375,-0.88125 0.35625,0 0.7875,0.0187 0.45,0.0188 0.7875,0.0563 z"
   id="text3031-0"
   transform="scale(-1)"
   aria-label="r" />

</svg>
