<?xml version="1.0" encoding="UTF-8" standalone="no"?>
<svg
   width="240"
   height="336"
   viewBox="0 0 63.5 88.9"
   version="1.1"
   id="svg1"
   inkscape:version="1.4.2 (f4327f4, 2025-05-13)"
   sodipodi:docname="blueprint.svg"
   xml:space="preserve"
   xmlns:inkscape="http://www.inkscape.org/namespaces/inkscape"
   xmlns:sodipodi="http://sodipodi.sourceforge.net/DTD/sodipodi-0.dtd"
   xmlns:xlink="http://www.w3.org/1999/xlink"
   xmlns="http://www.w3.org/2000/svg"
   xmlns:svg="http://www.w3.org/2000/svg">
	<sodipodi:namedview
   id="namedview1"
   pagecolor="#505050"
   bordercolor="#eeeeee"
   borderopacity="1"
   inkscape:showpageshadow="false"
   inkscape:pageopacity="0"
   inkscape:pagecheckerboard="0"
   inkscape:deskcolor="#505050"
   inkscape:document-units="px"
   inkscape:zoom="2.0000001"
   inkscape:cx="184"
   inkscape:cy="154.25"
   inkscape:window-width="1920"
   inkscape:window-height="1009"
   inkscape:window-x="1912"
   inkscape:window-y="-8"
   inkscape:window-maximized="1"
   inkscape:current-layer="layer3"
   labelstyle="default" />
	<defs
   id="defs1">
		<rect
   x="83"
   y="106"
   width="79"
   height="60.5"
   id="rect1" />
		<rect
   x="-30.405592"
   y="2.1213202"
   width="85.559921"
   height="76.367531"
   id="rect4" />
		<rect
   x="9"
   y="23"
   width="260.5"
   height="110"
   id="rect3" />
		<rect
   x="-8.5"
   y="30"
   width="331"
   height="87"
   id="rect2" />
	</defs>
	<g
   inkscape:label="base"
   inkscape:groupmode="layer"
   id="layer1"
   style="display:inline">
		<rect
   style="fill:#f2f2f2;stroke:#000000;stroke-width:0.264583;stroke-linecap:butt;stroke-linejoin:miter;stroke-miterlimit:4;stroke-dasharray:none;paint-order:normal"
   id="rect6"
   width="63.235416"
   height="88.635414"
   x="0.1322915"
   y="0.1322915"
   rx="2.6458333"
   ry="2.6458333"
   inkscape:label="outer" />
	</g>
	<g
   inkscape:groupmode="layer"
   id="layer4"
   inkscape:label="helper"
   style="display:inline">
		<rect
   style="display:inline;fill:#f2f2f2;stroke:#000000;stroke-width:0.264583;stroke-linecap:butt;stroke-linejoin:miter;stroke-miterlimit:4;stroke-dasharray:none;paint-order:normal"
   id="rect474"
   width="57.943748"
   height="83.34375"
   x="2.7781246"
   y="2.7781248"
   inkscape:label="1" />
		<rect
   style="display:inline;fill:#f2f2f2;stroke:#000000;stroke-width:0.264583;stroke-linecap:butt;stroke-linejoin:miter;stroke-miterlimit:4;stroke-dasharray:none;paint-order:normal"
   id="rect474-1"
   width="42.068752"
   height="72.760414"
   x="10.715625"
   y="8.0697918"
   inkscape:label="2" />
	</g>
	<g
   inkscape:groupmode="layer"
   id="layer3"
   inkscape:label="suit"
   style="display:inline">
		<path
   id="diamond"
   style="display:inline;fill:#d40000;stroke-width:0.396875"
   d="m -26.458338,13.22916 c 0,0 -1.984014,-2.420903 -3.088842,-3.525738 -1.104835,-1.104833 -3.525736,-3.088847 -3.525736,-3.088847 0,0 2.420901,-1.984013 3.525736,-3.088846 1.104828,-1.104833 3.088842,-3.525738 3.088842,-3.525738 0,0 1.984016,2.420905 3.088846,3.525738 1.104836,1.104833 3.525741,3.088846 3.525741,3.088846 0,0 -2.420906,1.984014 -3.525741,3.088848 -1.10483,1.104834 -3.088846,3.525737 -3.088846,3.525737 z" />
		<path
   id="club"
   style="fill:#1a1a1a;stroke:none;stroke-width:0.396873"
   d="m -26.584503,0.00435113 a 3.4394171,3.4502427 89.99994 0 0 -3.076239,2.28061997 3.4394171,3.4502427 89.99994 0 0 0.02045,2.34576 3.4394171,3.4502427 89.99994 0 0 -3.232353,2.278373 3.4394171,3.4502427 89.99994 0 0 2.091932,4.3945679 3.4394171,3.4502427 89.99994 0 0 3.984181,-1.278567 c -0.122059,0.819444 -0.237819,1.673599 -0.300549,1.801718 -0.129659,0.26481 -1.703455,1.028079 -1.710075,1.402336 h 4.697813 c 0.0064,-0.361642 -1.537164,-1.048518 -1.662448,-1.304399 -0.06858,-0.140065 -0.205299,-1.105333 -0.346154,-1.9856869 a 3.4394171,3.4502427 89.99994 0 0 1.666044,1.2695819 3.4394171,3.4502427 89.99994 0 0 4.408048,-2.0856449 3.4394171,3.4502427 89.99994 0 0 -2.092163,-4.394118 3.4394171,3.4502427 89.99994 0 0 -1.00879,-0.190706 3.4394171,3.4502427 89.99994 0 0 -2.107877,-4.33863597 3.4394171,3.4502427 89.99994 0 0 -1.331805,-0.195199 z" />
		<path
   id="heart"
   style="fill:#d40000;stroke:none;stroke-width:0.396876"
   d="m -23.710939,2.05e-5 a 3.8672172,4.2375471 0 0 0 -2.75176,1.26018 3.8672172,4.2375471 0 0 0 -2.743,-1.250344 3.8672172,4.2375471 0 0 0 -3.867217,4.237546 3.8672172,4.2375471 0 0 0 1.367012,3.232856 l 5.246489,5.7489005 5.298813,-5.8062355 8.5e-4,-7.5e-4 a 3.8672172,4.2375471 0 0 0 1.316002,-3.184635 3.8672172,4.2375471 0 0 0 -3.867216,-4.237547 z" />
		<path
   id="spade"
   style="display:inline;fill:#1a1a1a;stroke:none;stroke-width:0.396876"
   d="m -26.45937,-7.5e-6 -5.24662,5.054101 a 3.8672391,3.725507 0 0 0 -1.366927,2.842237 3.8672391,3.725507 0 0 0 3.867107,3.7256645 3.8672391,3.725507 0 0 0 2.333481,-0.754627 c -0.0951,0.559272 -0.17999,1.053403 -0.23071,1.142619 -0.1309,0.23021 -1.71993,0.89382 -1.72662,1.219172 h 4.742639 c 0.007,-0.31439 -1.55165,-0.911762 -1.67814,-1.134214 -0.0535,-0.094 -0.14805,-0.615437 -0.25381,-1.200545 a 3.8672391,3.725507 0 0 0 2.3081,0.736228 3.8672391,3.725507 0 0 0 3.86712,-3.7256645 3.8672391,3.725507 0 0 0 -1.31594,-2.799758 l -10e-4,-7e-4 z" />
		
	</g>
	<g
   inkscape:groupmode="layer"
   id="layer5"
   inkscape:label="body"
   style="display:inline">
		<use
   x="0"
   y="0"
   xlink:href="#suit"
   id="use1"
   inkscape:label="suit1"
   transform="translate(58.208333,37.835419)"
   style="display:inline" />
		<use
   x="0"
   y="0"
   xlink:href="#suit"
   id="use13"
   transform="matrix(0.99999997,0,0,-1,58.208333,80.962491)"
   inkscape:label="suit2"
   style="display:inline" />
		<use
   x="0"
   y="0"
   xlink:href="#suit"
   id="use14"
   inkscape:label="suit3"
   style="display:inline"
   transform="translate(58.208334,7.9374995)" />
		<use
   x="0"
   y="0"
   xlink:href="#suit"
   id="use15"
   transform="translate(43.656251,7.9374995)"
   inkscape:label="suit4" />
		<use
   x="0"
   y="0"
   xlink:href="#suit"
   id="use16"
   transform="translate(72.76042,7.9374995)"
   inkscape:label="suit5" />
		<use
   x="0"
   y="0"
   xlink:href="#suit"
   id="use17"
   transform="matrix(0.99999997,0,0,-1,43.65625,80.962491)"
   inkscape:label="suit6" />
		<use
   x="0"
   y="0"
   xlink:href="#suit"
   id="use18"
   transform="matrix(0.99999997,0,0,-1,72.760419,80.962491)"
   inkscape:label="suit7"
   style="display:inline" />
		<use
   x="0"
   y="0"
   xlink:href="#suit"
   id="use2"
   inkscape:label="suit8"
   transform="translate(43.656251,37.835419)" />
		<use
   x="0"
   y="0"
   xlink:href="#suit"
   id="use3"
   inkscape:label="suit9"
   transform="translate(72.76042,37.835419)" />
		<use
   x="0"
   y="0"
   xlink:href="#suit"
   id="use4"
   transform="translate(43.65625,27.86945)"
   inkscape:label="suit10" />
		<use
   x="0"
   y="0"
   xlink:href="#suit"
   id="use5"
   inkscape:label="suit11"
   transform="translate(72.76042,27.86945)" />
		<use
   x="0"
   y="0"
   xlink:href="#suit"
   id="use6"
   inkscape:label="suit12"
   transform="matrix(0.99999997,0,0,-1,43.65625,61.030552)" />
		<use
   x="0"
   y="0"
   xlink:href="#suit"
   id="use7"
   inkscape:label="suit13"
   transform="matrix(0.99999997,0,0,-1,72.760419,61.030552)" />
		<use
   x="0"
   y="0"
   xlink:href="#suit"
   id="use8"
   inkscape:label="suit14"
   transform="translate(58.208334,27.869444)" />
		<use
   x="0"
   y="0"
   xlink:href="#suit"
   id="use9"
   inkscape:label="suit15"
   transform="matrix(0.99999997,0,0,-1,58.208333,61.030543)" />
		<use
   x="0"
   y="0"
   xlink:href="#suit"
   id="use26"
   inkscape:label="suit_big"
   transform="matrix(2.9999999,0,0,2.9999999,111.125,24.60625)"
   style="fill:#aa0000;fill-opacity:1;stroke-width:0.333333" />
		<text
   xml:space="preserve"
   style="font-style:normal;font-variant:normal;font-weight:normal;font-stretch:normal;font-size:38.1px;font-family:Comfortaa;-inkscape-font-specification:Comfortaa;text-align:center;writing-mode:lr-tb;direction:ltr;text-anchor:middle;display:inline;fill:#0000ff;fill-opacity:1;stroke:none;stroke-width:0.264583"
   x="32.797756"
   y="59.137547"
   id="text2"
   inkscape:label="text_big">A</text>
	</g>
	<g
   inkscape:groupmode="layer"
   id="layer2"
   inkscape:label="sides"
   style="display:inline">
		<use
   x="0"
   y="0"
   xlink:href="#suit"
   id="use24"
   transform="matrix(0.49999998,0,0,0.49999998,19.182291,11.24479)"
   style="display:inline;stroke-width:2"
   inkscape:label="suit_tl" />
		<use
   x="0"
   y="0"
   xlink:href="#use24"
   id="use25"
   transform="matrix(1,0,0,-1,51.593747,88.899987)"
   inkscape:label="suit_br"
   style="display:inline" />
		
		
	<text
   xml:space="preserve"
   style="font-weight:bold;font-size:9.48572px;font-family:Comfortaa;-inkscape-font-specification:'Comfortaa Bold';text-align:center;writing-mode:lr-tb;direction:ltr;text-anchor:middle;fill:#008000;fill-opacity:1;stroke:none;stroke-width:0.264582"
   x="5.9388857"
   y="10.054164"
   id="text6"
   inkscape:label="text_tl">A</text><use
   x="0"
   y="0"
   xlink:href="#text6"
   id="use10"
   inkscape:label="text_br"
   transform="rotate(180,31.749998,44.45)" /></g><g
   inkscape:groupmode="layer"
   id="layer6"
   inkscape:label="blueprint"><path
     id="suit"
     style="display:inline;fill:#800080;stroke:none;stroke-width:0.396876"
     d="m -23.710954,2.9e-5 a 3.867212,4.237541 0 0 0 -2.751755,1.26018 3.867212,4.237541 0 0 0 -2.742997,-1.25035 3.867212,4.237541 0 0 0 -3.867211,4.237541 3.867212,4.237541 0 0 0 1.36701,3.232861 l 5.246482,5.74889 5.298806,-5.80623 9e-4,-7.5e-4 A 3.867212,4.237541 0 0 0 -19.84375,4.23754 3.867212,4.237541 0 0 0 -23.71096,0 Z"
     inkscape:label="suit" /></g>
</svg>
