<?xml version="1.0" encoding="UTF-8" standalone="no"?>
<svg
   width="240"
   height="336"
   viewBox="0 0 63.5 88.9"
   version="1.1"
   id="svg1"
   inkscape:version="1.4.2 (f4327f4, 2025-05-13)"
   sodipodi:docname="10_diamond.svg"
   xml:space="preserve"
   xmlns:inkscape="http://www.inkscape.org/namespaces/inkscape"
   xmlns:sodipodi="http://sodipodi.sourceforge.net/DTD/sodipodi-0.dtd"
   xmlns:xlink="http://www.w3.org/1999/xlink"
   xmlns="http://www.w3.org/2000/svg"
   xmlns:svg="http://www.w3.org/2000/svg">
	<sodipodi:namedview
   id="namedview1"
   pagecolor="#505050"
   bordercolor="#eeeeee"
   borderopacity="1"
   inkscape:showpageshadow="false"
   inkscape:pageopacity="0"
   inkscape:pagecheckerboard="0"
   inkscape:deskcolor="#505050"
   inkscape:document-units="px"
   inkscape:zoom="2.0000001"
   inkscape:cx="184"
   inkscape:cy="154.25"
   inkscape:window-width="1920"
   inkscape:window-height="1009"
   inkscape:window-x="1912"
   inkscape:window-y="-8"
   inkscape:window-maximized="1"
   inkscape:current-layer="layer3"
   labelstyle="default" />
	<defs
   id="defs1">
		<rect
   x="83"
   y="106"
   width="79"
   height="60.5"
   id="rect1" />
		<rect
   x="-30.405592"
   y="2.1213202"
   width="85.559921"
   height="76.367531"
   id="rect4" />
		<rect
   x="9"
   y="23"
   width="260.5"
   height="110"
   id="rect3" />
		<rect
   x="-8.5"
   y="30"
   width="331"
   height="87"
   id="rect2" />
	</defs>
	<g
   inkscape:label="base"
   inkscape:groupmode="layer"
   id="layer1"
   style="display:inline">
		<rect
   style="fill:#f2f2f2;stroke:#000000;stroke-width:0.264583;stroke-linecap:butt;stroke-linejoin:miter;stroke-miterlimit:4;stroke-dasharray:none;paint-order:normal"
   id="rect6"
   width="63.235416"
   height="88.635414"
   x="0.1322915"
   y="0.1322915"
   rx="2.6458333"
   ry="2.6458333"
   inkscape:label="outer" />
	</g>
	<g
   inkscape:groupmode="layer"
   id="layer5"
   inkscape:label="body"
   style="display:inline">
		<use
   x="0"
   y="0"
   xlink:href="#suit"
   id="use15"
   transform="translate(43.656251,7.9374995)"
   inkscape:label="suit4" />
		<use
   x="0"
   y="0"
   xlink:href="#suit"
   id="use16"
   transform="translate(72.76042,7.9374995)"
   inkscape:label="suit5" />
		<use
   x="0"
   y="0"
   xlink:href="#suit"
   id="use17"
   transform="matrix(0.99999997,0,0,-1,43.65625,80.962491)"
   inkscape:label="suit6" />
		<use
   x="0"
   y="0"
   xlink:href="#suit"
   id="use18"
   transform="matrix(0.99999997,0,0,-1,72.760419,80.962491)"
   inkscape:label="suit7"
   style="display:inline" />
		<use
   x="0"
   y="0"
   xlink:href="#suit"
   id="use4"
   transform="translate(43.65625,27.86945)"
   inkscape:label="suit10" />
		<use
   x="0"
   y="0"
   xlink:href="#suit"
   id="use5"
   inkscape:label="suit11"
   transform="translate(72.76042,27.86945)" />
		<use
   x="0"
   y="0"
   xlink:href="#suit"
   id="use6"
   inkscape:label="suit12"
   transform="matrix(0.99999997,0,0,-1,43.65625,61.030552)" />
		<use
   x="0"
   y="0"
   xlink:href="#suit"
   id="use7"
   inkscape:label="suit13"
   transform="matrix(0.99999997,0,0,-1,72.760419,61.030552)" />
		<use
   x="0"
   y="0"
   xlink:href="#suit"
   id="use8"
   inkscape:label="suit14"
   transform="translate(58.208334,27.869444)" />
		<use
   x="0"
   y="0"
   xlink:href="#suit"
   id="use9"
   inkscape:label="suit15"
   transform="matrix(0.99999997,0,0,-1,58.208333,61.030543)" />
		</g>
	<g
   inkscape:groupmode="layer"
   id="layer2"
   inkscape:label="sides"
   style="display:inline">
		<use
   x="0"
   y="0"
   xlink:href="#suit"
   id="use24"
   transform="matrix(0.49999998,0,0,0.49999998,19.182291,11.24479)"
   style="display:inline;stroke-width:2"
   inkscape:label="suit_tl" />
		<use
   x="0"
   y="0"
   xlink:href="#use24"
   id="use25"
   transform="matrix(1,0,0,-1,51.593747,88.899987)"
   inkscape:label="suit_br"
   style="display:inline" />
		
		
	<path
   d="m 3.6196331,10.054164 q -0.1897144,0 -0.3320002,-0.1422859 Q 3.1453471,9.7695923 3.1453471,9.5703922 V 3.7841032 L 2.4528896,4.0781605 q -0.1612573,0.0664 -0.3035431,0.0664 -0.2086858,0 -0.3509716,-0.1328001 -0.1328001,-0.1328001 -0.1328001,-0.3414859 0,-0.1517715 0.075886,-0.2750859 Q 1.8173463,3.2718744 1.9786036,3.21496 L 3.4583759,2.6837597 q 0.047429,-0.018971 0.094857,-0.028457 0.047429,-0.00949 0.085371,-0.00949 0.2181716,0 0.3414859,0.1422858 0.1328001,0.1328 0.1328001,0.3509716 v 6.4313179 q 0,0.1992001 -0.1422858,0.3414859 -0.1422858,0.1422859 -0.3509716,0.1422859 z m 4.1831991,0 q -0.7209147,0 -1.2331436,-0.4363432 Q 6.0669455,9.171992 5.8013453,8.3467344 5.5357452,7.5119911 5.5357452,6.3452475 q 0,-1.1667435 0.2656001,-1.9920011 Q 6.0669455,3.5185031 6.5696886,3.08216 7.0819175,2.6363311 7.8028322,2.6363311 q 0.7209147,0 1.2236578,0.4553146 0.5122289,0.4458288 0.777829,1.2805721 0.2656,0.8252577 0.2656,1.9730297 0,1.1477721 -0.2656,1.9825155 Q 9.5387189,9.1530206 9.02649,9.6083351 8.5237469,10.054164 7.8028322,10.054164 Z m 0,-0.9865149 q 0.4363431,0 0.7209147,-0.3509716 Q 8.8083185,8.3562201 8.9506042,7.7396483 9.09289,7.1230766 9.09289,6.3452475 9.09289,5.5674185 8.9506042,4.9508467 8.8083185,4.334275 8.5237469,3.9738176 8.2391753,3.6133603 7.8028322,3.6133603 q -0.4363431,0 -0.7209147,0.3604573 Q 6.7973459,4.3247892 6.6550601,4.941361 6.5127743,5.5579328 6.5127743,6.3452475 q 0,0.7873148 0.1422858,1.4038866 0.1422858,0.6165717 0.4268574,0.9675434 0.2940573,0.3509716 0.7209147,0.3509716 z"
   id="text6"
   style="font-weight:bold;font-size:9.48572px;font-family:Comfortaa;-inkscape-font-specification:'Comfortaa Bold';text-align:center;text-anchor:middle;fill:#d40000;stroke-width:0.264582"
   inkscape:label="text_tl"
   aria-label="10" /><use
   x="0"
   y="0"
   xlink:href="#text6"
   id="use10"
   inkscape:label="text_br"
   transform="rotate(180,31.749998,44.45)" /></g><g
   inkscape:groupmode="layer"
   id="layer6"
   inkscape:label="blueprint"><path
     id="suit"
     style="display:inline;fill:#d40000;stroke:none;stroke-width:0.396876"
     d="m -26.458338,13.22916 c 0,0 -1.984014,-2.420903 -3.088842,-3.525738 -1.104835,-1.104833 -3.525736,-3.088847 -3.525736,-3.088847 0,0 2.420901,-1.984013 3.525736,-3.088846 1.104828,-1.104833 3.088842,-3.525738 3.088842,-3.525738 0,0 1.984016,2.420905 3.088846,3.525738 1.104836,1.104833 3.525741,3.088846 3.525741,3.088846 0,0 -2.420906,1.984014 -3.525741,3.088848 -1.10483,1.104834 -3.088846,3.525737 -3.088846,3.525737 z"
     inkscape:label="suit" /></g>
</svg>
