<?xml version="1.0" encoding="UTF-8" standalone="no"?>
<svg
   width="240"
   height="336"
   viewBox="0 0 63.5 88.9"
   version="1.1"
   id="svg1"
   inkscape:version="1.4.2 (f4327f4, 2025-05-13)"
   sodipodi:docname="11_heart.svg"
   xml:space="preserve"
   xmlns:inkscape="http://www.inkscape.org/namespaces/inkscape"
   xmlns:sodipodi="http://sodipodi.sourceforge.net/DTD/sodipodi-0.dtd"
   xmlns:xlink="http://www.w3.org/1999/xlink"
   xmlns="http://www.w3.org/2000/svg"
   xmlns:svg="http://www.w3.org/2000/svg">
	<sodipodi:namedview
   id="namedview1"
   pagecolor="#505050"
   bordercolor="#eeeeee"
   borderopacity="1"
   inkscape:showpageshadow="false"
   inkscape:pageopacity="0"
   inkscape:pagecheckerboard="0"
   inkscape:deskcolor="#505050"
   inkscape:document-units="px"
   inkscape:zoom="2.0000001"
   inkscape:cx="184"
   inkscape:cy="154.25"
   inkscape:window-width="1920"
   inkscape:window-height="1009"
   inkscape:window-x="1912"
   inkscape:window-y="-8"
   inkscape:window-maximized="1"
   inkscape:current-layer="layer3"
   labelstyle="default" />
	<defs
   id="defs1">
		<rect
   x="83"
   y="106"
   width="79"
   height="60.5"
   id="rect1" />
		<rect
   x="-30.405592"
   y="2.1213202"
   width="85.559921"
   height="76.367531"
   id="rect4" />
		<rect
   x="9"
   y="23"
   width="260.5"
   height="110"
   id="rect3" />
		<rect
   x="-8.5"
   y="30"
   width="331"
   height="87"
   id="rect2" />
	</defs>
	<g
   inkscape:label="base"
   inkscape:groupmode="layer"
   id="layer1"
   style="display:inline">
		<rect
   style="fill:#f2f2f2;stroke:#000000;stroke-width:0.264583;stroke-linecap:butt;stroke-linejoin:miter;stroke-miterlimit:4;stroke-dasharray:none;paint-order:normal"
   id="rect6"
   width="63.235416"
   height="88.635414"
   x="0.1322915"
   y="0.1322915"
   rx="2.6458333"
   ry="2.6458333"
   inkscape:label="outer" />
	</g>
	<g
   inkscape:groupmode="layer"
   id="layer5"
   inkscape:label="body"
   style="display:inline">
		<path
   d="m 31.76905,59.518547 q -2.5527,0 -4.572,-1.1811 -2.0193,-1.1811 -3.2004,-3.2004 -1.1811,-2.0193 -1.1811,-4.5339 0,-0.6477 0.4191,-1.0668 0.4191,-0.4191 1.0668,-0.4191 0.6477,0 1.0668,0.4191 0.4191,0.4191 0.4191,1.0668 0,1.7145 0.8001,3.1242 0.8001,1.3716 2.1336,2.1717 1.3716,0.8001 3.048,0.8001 1.6764,0 3.0099,-0.8001 1.3716,-0.8382 2.1336,-2.2098 0.8001,-1.3716 0.8001,-3.0861 V 30.867348 q 0,-0.6477 0.4191,-1.0668 0.4191,-0.4191 1.0668,-0.4191 0.6477,0 1.0668,0.4191 0.4191,0.4191 0.4191,1.0668 v 19.735799 q 0,2.5146 -1.1811,4.5339 -1.1811,2.0193 -3.2004,3.2004 -2.0193,1.1811 -4.5339,1.1811 z"
   id="text2"
   style="font-size:38.1px;font-family:Comfortaa;-inkscape-font-specification:Comfortaa;text-align:center;text-anchor:middle;fill:#d40000;stroke-width:0.264583"
   inkscape:label="text_big"
   aria-label="J" />
	</g>
	<g
   inkscape:groupmode="layer"
   id="layer2"
   inkscape:label="sides"
   style="display:inline">
		<use
   x="0"
   y="0"
   xlink:href="#suit"
   id="use24"
   transform="matrix(0.49999998,0,0,0.49999998,19.182291,11.24479)"
   style="display:inline;stroke-width:2"
   inkscape:label="suit_tl" />
		<use
   x="0"
   y="0"
   xlink:href="#use24"
   id="use25"
   transform="matrix(1,0,0,-1,51.593747,88.899987)"
   inkscape:label="suit_br"
   style="display:inline" />
		
		
	<path
   d="m 5.6732881,10.149021 q -0.6640003,0 -1.1857149,-0.2845715 Q 3.9753443,9.5703922 3.681287,9.0581634 3.3967154,8.5364488 3.3967154,7.8724484 q 0,-0.2181715 0.1422858,-0.3509716 Q 3.681287,7.379191 3.8899728,7.379191 q 0.2181716,0 0.3509717,0.1422858 0.1422858,0.1328001 0.1422858,0.3509716 0,0.407886 0.1612572,0.7209147 0.170743,0.3130288 0.4553145,0.4932574 0.2940574,0.170743 0.6734861,0.170743 0.3794288,0 0.6734861,-0.170743 Q 6.6408316,8.9063919 6.8020888,8.5933631 6.9728317,8.2803344 6.9728317,7.8724484 V 3.1390743 q 0,-0.2181716 0.1328001,-0.3509716 0.1422858,-0.1422858 0.3509716,-0.1422858 0.2181716,0 0.3604574,0.1422858 0.1422858,0.1328 0.1422858,0.3509716 v 4.7333741 q 0,0.6640004 -0.2940573,1.185715 Q 7.371232,9.5703922 6.8590031,9.8644495 6.3467742,10.149021 5.6732881,10.149021 Z"
   id="text6"
   style="font-weight:bold;font-size:9.48572px;font-family:Comfortaa;-inkscape-font-specification:'Comfortaa Bold';text-align:center;text-anchor:middle;fill:#d40000;stroke-width:0.264582"
   inkscape:label="text_tl"
   aria-label="J" /><use
   x="0"
   y="0"
   xlink:href="#text6"
   id="use10"
   inkscape:label="text_br"
   transform="rotate(180,31.749998,44.45)" /></g><g
   inkscape:groupmode="layer"
   id="layer6"
   inkscape:label="blueprint"><path
     id="suit"
     style="display:inline;fill:#d40000;stroke:none;stroke-width:0.396876"
     d="m -23.710939,2.05e-5 a 3.8672172,4.2375471 0 0 0 -2.75176,1.26018 3.8672172,4.2375471 0 0 0 -2.743,-1.250344 3.8672172,4.2375471 0 0 0 -3.867217,4.237546 3.8672172,4.2375471 0 0 0 1.367012,3.232856 l 5.246489,5.7489005 5.298813,-5.8062355 8.5e-4,-7.5e-4 a 3.8672172,4.2375471 0 0 0 1.316002,-3.184635 3.8672172,4.2375471 0 0 0 -3.867216,-4.237547 z"
     inkscape:label="suit" /></g>
</svg>
