<?xml version="1.0" encoding="UTF-8" standalone="no"?>
<svg
   width="240"
   height="336"
   viewBox="0 0 63.5 88.9"
   version="1.1"
   id="svg1"
   inkscape:version="1.4.2 (f4327f4, 2025-05-13)"
   sodipodi:docname="13_heart.svg"
   xml:space="preserve"
   xmlns:inkscape="http://www.inkscape.org/namespaces/inkscape"
   xmlns:sodipodi="http://sodipodi.sourceforge.net/DTD/sodipodi-0.dtd"
   xmlns:xlink="http://www.w3.org/1999/xlink"
   xmlns="http://www.w3.org/2000/svg"
   xmlns:svg="http://www.w3.org/2000/svg">
	<sodipodi:namedview
   id="namedview1"
   pagecolor="#505050"
   bordercolor="#eeeeee"
   borderopacity="1"
   inkscape:showpageshadow="false"
   inkscape:pageopacity="0"
   inkscape:pagecheckerboard="0"
   inkscape:deskcolor="#505050"
   inkscape:document-units="px"
   inkscape:zoom="2.0000001"
   inkscape:cx="184"
   inkscape:cy="154.25"
   inkscape:window-width="1920"
   inkscape:window-height="1009"
   inkscape:window-x="1912"
   inkscape:window-y="-8"
   inkscape:window-maximized="1"
   inkscape:current-layer="layer3"
   labelstyle="default" />
	<defs
   id="defs1">
		<rect
   x="83"
   y="106"
   width="79"
   height="60.5"
   id="rect1" />
		<rect
   x="-30.405592"
   y="2.1213202"
   width="85.559921"
   height="76.367531"
   id="rect4" />
		<rect
   x="9"
   y="23"
   width="260.5"
   height="110"
   id="rect3" />
		<rect
   x="-8.5"
   y="30"
   width="331"
   height="87"
   id="rect2" />
	</defs>
	<g
   inkscape:label="base"
   inkscape:groupmode="layer"
   id="layer1"
   style="display:inline">
		<rect
   style="fill:#f2f2f2;stroke:#000000;stroke-width:0.264583;stroke-linecap:butt;stroke-linejoin:miter;stroke-miterlimit:4;stroke-dasharray:none;paint-order:normal"
   id="rect6"
   width="63.235416"
   height="88.635414"
   x="0.1322915"
   y="0.1322915"
   rx="2.6458333"
   ry="2.6458333"
   inkscape:label="outer" />
	</g>
	<g
   inkscape:groupmode="layer"
   id="layer5"
   inkscape:label="body"
   style="display:inline">
		<path
   d="m 25.615893,59.137547 q -0.6096,0 -1.0668,-0.4191 -0.4191,-0.4572 -0.4191,-1.0668 V 30.867348 q 0,-0.6096 0.4191,-1.0287 0.4572,-0.4572 1.0668,-0.4572 0.6096,0 1.0287,0.4572 0.4572,0.4191 0.4572,1.0287 v 12.953999 l 13.9065,-13.906499 q 0.3048,-0.3048 0.5715,-0.4191 0.2667,-0.1143 0.6096,-0.1143 0.6858,0 1.0287,0.4191 0.3429,0.4191 0.3048,1.0287 0,0.5715 -0.4572,1.1049 l -10.4394,10.439399 10.5537,14.4018 q 0.3429,0.4953 0.2667,1.0668 -0.0381,0.5334 -0.4191,0.9144 -0.381,0.381 -0.9144,0.381 -0.8382,0 -1.2573,-0.6477 l -10.3632,-14.0208 -3.3909,3.429 v 9.7536 q 0,0.6096 -0.4572,1.0668 -0.4191,0.4191 -1.0287,0.4191 z"
   id="text2"
   style="font-size:38.1px;font-family:Comfortaa;-inkscape-font-specification:Comfortaa;text-align:center;text-anchor:middle;fill:#d40000;stroke-width:0.264583"
   inkscape:label="text_big"
   aria-label="K" />
	</g>
	<g
   inkscape:groupmode="layer"
   id="layer2"
   inkscape:label="sides"
   style="display:inline">
		<use
   x="0"
   y="0"
   xlink:href="#suit"
   id="use24"
   transform="matrix(0.49999998,0,0,0.49999998,19.182291,11.24479)"
   style="display:inline;stroke-width:2"
   inkscape:label="suit_tl" />
		<use
   x="0"
   y="0"
   xlink:href="#use24"
   id="use25"
   transform="matrix(1,0,0,-1,51.593747,88.899987)"
   inkscape:label="suit_br"
   style="display:inline" />
		
		
	<path
   d="m 4.2172284,10.054164 q -0.1992001,0 -0.3509716,-0.1422859 Q 3.723971,9.7695923 3.723971,9.5609065 V 3.1390743 q 0,-0.2086858 0.1422858,-0.3509716 0.1517715,-0.1422858 0.3509716,-0.1422858 0.2086859,0 0.3509717,0.1422858 0.1422858,0.1422858 0.1422858,0.3509716 V 5.9847902 L 7.8502591,2.845017 q 0.1138286,-0.1138287 0.2086858,-0.1517715 0.094857,-0.047429 0.1992001,-0.047429 0.237143,0 0.3414859,0.1422858 0.1043429,0.1422858 0.075886,0.3414859 Q 8.6470595,3.319303 8.495288,3.4805602 L 6.0764295,5.9089044 8.5427166,9.2668492 q 0.1138286,0.1612572 0.094857,0.3509716 -0.018971,0.1802287 -0.1328001,0.3130288 -0.1138286,0.1233144 -0.303543,0.1233144 -0.2656001,0 -0.4078859,-0.2086859 L 5.3934577,6.5918762 4.7104859,7.2748481 v 2.2860584 q 0,0.2086858 -0.1422858,0.3509716 -0.1422858,0.1422859 -0.3509717,0.1422859 z"
   id="text6"
   style="font-weight:bold;font-size:9.48572px;font-family:Comfortaa;-inkscape-font-specification:'Comfortaa Bold';text-align:center;text-anchor:middle;fill:#d40000;stroke-width:0.264582"
   inkscape:label="text_tl"
   aria-label="K" /><use
   x="0"
   y="0"
   xlink:href="#text6"
   id="use10"
   inkscape:label="text_br"
   transform="rotate(180,31.749998,44.45)" /></g><g
   inkscape:groupmode="layer"
   id="layer6"
   inkscape:label="blueprint"><path
     id="suit"
     style="display:inline;fill:#d40000;stroke:none;stroke-width:0.396876"
     d="m -23.710939,2.05e-5 a 3.8672172,4.2375471 0 0 0 -2.75176,1.26018 3.8672172,4.2375471 0 0 0 -2.743,-1.250344 3.8672172,4.2375471 0 0 0 -3.867217,4.237546 3.8672172,4.2375471 0 0 0 1.367012,3.232856 l 5.246489,5.7489005 5.298813,-5.8062355 8.5e-4,-7.5e-4 a 3.8672172,4.2375471 0 0 0 1.316002,-3.184635 3.8672172,4.2375471 0 0 0 -3.867216,-4.237547 z"
     inkscape:label="suit" /></g>
</svg>
