<?xml version="1.0" encoding="UTF-8" standalone="no"?>
<svg
   width="240"
   height="336"
   viewBox="0 0 63.5 88.9"
   version="1.1"
   id="svg1"
   inkscape:version="1.4.2 (f4327f4, 2025-05-13)"
   sodipodi:docname="1_heart2.svg"
   xml:space="preserve"
   xmlns:inkscape="http://www.inkscape.org/namespaces/inkscape"
   xmlns:sodipodi="http://sodipodi.sourceforge.net/DTD/sodipodi-0.dtd"
   xmlns:xlink="http://www.w3.org/1999/xlink"
   xmlns="http://www.w3.org/2000/svg"
   xmlns:svg="http://www.w3.org/2000/svg">
	<sodipodi:namedview
   id="namedview1"
   pagecolor="#505050"
   bordercolor="#eeeeee"
   borderopacity="1"
   inkscape:showpageshadow="false"
   inkscape:pageopacity="0"
   inkscape:pagecheckerboard="0"
   inkscape:deskcolor="#505050"
   inkscape:document-units="px"
   inkscape:zoom="2.0000001"
   inkscape:cx="184.24999"
   inkscape:cy="154.74999"
   inkscape:window-width="1920"
   inkscape:window-height="1009"
   inkscape:window-x="1912"
   inkscape:window-y="-8"
   inkscape:window-maximized="1"
   inkscape:current-layer="layer1"
   labelstyle="default" />
	<defs
   id="defs1">
		<rect
   x="83"
   y="106"
   width="79"
   height="60.5"
   id="rect1" />
		<rect
   x="-30.405592"
   y="2.1213202"
   width="85.559921"
   height="76.367531"
   id="rect4" />
		<rect
   x="9"
   y="23"
   width="260.5"
   height="110"
   id="rect3" />
		<rect
   x="-8.5"
   y="30"
   width="331"
   height="87"
   id="rect2" />
	</defs>
	<g
   inkscape:label="base"
   inkscape:groupmode="layer"
   id="layer1"
   style="display:inline">
		<rect
   style="fill:#f2f2f2;stroke:#000000;stroke-width:0.264583;stroke-linecap:butt;stroke-linejoin:miter;stroke-miterlimit:4;stroke-dasharray:none;paint-order:normal"
   id="rect6"
   width="63.235416"
   height="88.635414"
   x="0.1322915"
   y="0.1322915"
   rx="2.6458333"
   ry="2.6458333"
   inkscape:label="outer" />
	</g>
	
	
	<g
   inkscape:groupmode="layer"
   id="layer5"
   inkscape:label="body"
   style="display:inline">
		
		
		
		
		
		
		
		
		
		
		
		
		
		
		
		<use
   x="0"
   y="0"
   xlink:href="#suit"
   id="use26"
   inkscape:label="suit_big"
   transform="matrix(2.9999999,0,0,2.9999999,111.125,24.60625)"
   style="fill:#aa0000;fill-opacity:1;stroke-width:0.333333" />
		
	</g>
	<g
   inkscape:groupmode="layer"
   id="layer2"
   inkscape:label="sides"
   style="display:inline">
		<use
   x="0"
   y="0"
   xlink:href="#suit"
   id="use24"
   transform="matrix(0.49999998,0,0,0.49999998,19.182291,11.24479)"
   style="display:inline;stroke-width:2"
   inkscape:label="suit_tl" />
		<use
   x="0"
   y="0"
   xlink:href="#use24"
   id="use25"
   transform="matrix(1,0,0,-1,51.593747,88.899987)"
   inkscape:label="suit_br"
   style="display:inline" />
		
		
	<path
   d="m 3.2591741,10.054164 q -0.2656002,0 -0.407886,-0.2276573 Q 2.7090023,9.5988494 2.822831,9.342735 L 5.4883182,2.9778171 Q 5.630604,2.6458169 5.9531185,2.6458169 q 0.3414859,0 0.4648002,0.3320002 l 2.674973,6.3838893 q 0.1043429,0.2656001 -0.037943,0.4837717 -0.1328001,0.2086859 -0.4078859,0.2086859 -0.1422858,0 -0.2750859,-0.075886 Q 8.2486626,9.8929067 8.1917483,9.7506209 L 5.8392898,3.9074176 H 6.10489 L 3.7144886,9.7506209 q -0.0664,0.1517715 -0.1992001,0.2276573 -0.1233143,0.075886 -0.2561144,0.075886 z M 3.7619172,8.4226201 4.141346,7.6068483 h 3.7184021 l 0.3794288,0.8157718 z"
   id="text6"
   style="font-weight:bold;font-size:9.48572px;font-family:Comfortaa;-inkscape-font-specification:'Comfortaa Bold';text-align:center;text-anchor:middle;fill:#d40000;stroke-width:0.264582"
   inkscape:label="text_tl"
   aria-label="A" /><use
   x="0"
   y="0"
   xlink:href="#text6"
   id="use10"
   inkscape:label="text_br"
   transform="rotate(180,31.749998,44.45)" /></g><g
   inkscape:groupmode="layer"
   id="layer6"
   inkscape:label="blueprint"><path
     id="suit"
     style="display:inline;fill:#d40000;stroke:none;stroke-width:0.396876"
     d="m -23.710939,2.05e-5 a 3.8672172,4.2375471 0 0 0 -2.75176,1.26018 3.8672172,4.2375471 0 0 0 -2.743,-1.250344 3.8672172,4.2375471 0 0 0 -3.867217,4.237546 3.8672172,4.2375471 0 0 0 1.367012,3.232856 l 5.246489,5.7489005 5.298813,-5.8062355 8.5e-4,-7.5e-4 a 3.8672172,4.2375471 0 0 0 1.316002,-3.184635 3.8672172,4.2375471 0 0 0 -3.867216,-4.237547 z"
     inkscape:label="suit" /></g>
</svg>
