<?xml version="1.0" encoding="UTF-8" standalone="no"?>
<svg
   width="240"
   height="336"
   viewBox="0 0 63.5 88.9"
   version="1.1"
   id="svg1"
   inkscape:version="1.4.2 (f4327f4, 2025-05-13)"
   sodipodi:docname="5_spade.svg"
   xml:space="preserve"
   xmlns:inkscape="http://www.inkscape.org/namespaces/inkscape"
   xmlns:sodipodi="http://sodipodi.sourceforge.net/DTD/sodipodi-0.dtd"
   xmlns:xlink="http://www.w3.org/1999/xlink"
   xmlns="http://www.w3.org/2000/svg"
   xmlns:svg="http://www.w3.org/2000/svg">
	<sodipodi:namedview
   id="namedview1"
   pagecolor="#505050"
   bordercolor="#eeeeee"
   borderopacity="1"
   inkscape:showpageshadow="false"
   inkscape:pageopacity="0"
   inkscape:pagecheckerboard="0"
   inkscape:deskcolor="#505050"
   inkscape:document-units="px"
   inkscape:zoom="2.0000001"
   inkscape:cx="184"
   inkscape:cy="154.25"
   inkscape:window-width="1920"
   inkscape:window-height="1009"
   inkscape:window-x="1912"
   inkscape:window-y="-8"
   inkscape:window-maximized="1"
   inkscape:current-layer="layer3"
   labelstyle="default" />
	<defs
   id="defs1">
		<rect
   x="83"
   y="106"
   width="79"
   height="60.5"
   id="rect1" />
		<rect
   x="-30.405592"
   y="2.1213202"
   width="85.559921"
   height="76.367531"
   id="rect4" />
		<rect
   x="9"
   y="23"
   width="260.5"
   height="110"
   id="rect3" />
		<rect
   x="-8.5"
   y="30"
   width="331"
   height="87"
   id="rect2" />
	</defs>
	<g
   inkscape:label="base"
   inkscape:groupmode="layer"
   id="layer1"
   style="display:inline">
		<rect
   style="fill:#f2f2f2;stroke:#000000;stroke-width:0.264583;stroke-linecap:butt;stroke-linejoin:miter;stroke-miterlimit:4;stroke-dasharray:none;paint-order:normal"
   id="rect6"
   width="63.235416"
   height="88.635414"
   x="0.1322915"
   y="0.1322915"
   rx="2.6458333"
   ry="2.6458333"
   inkscape:label="outer" />
	</g>
	<g
   inkscape:groupmode="layer"
   id="layer5"
   inkscape:label="body"
   style="display:inline">
		<use
   x="0"
   y="0"
   xlink:href="#suit"
   id="use1"
   inkscape:label="suit1"
   transform="translate(58.208333,37.835419)"
   style="display:inline" />
		<use
   x="0"
   y="0"
   xlink:href="#suit"
   id="use15"
   transform="translate(43.656251,7.9374995)"
   inkscape:label="suit4" />
		<use
   x="0"
   y="0"
   xlink:href="#suit"
   id="use16"
   transform="translate(72.76042,7.9374995)"
   inkscape:label="suit5" />
		<use
   x="0"
   y="0"
   xlink:href="#suit"
   id="use17"
   transform="matrix(0.99999997,0,0,-1,43.65625,80.962491)"
   inkscape:label="suit6" />
		<use
   x="0"
   y="0"
   xlink:href="#suit"
   id="use18"
   transform="matrix(0.99999997,0,0,-1,72.760419,80.962491)"
   inkscape:label="suit7"
   style="display:inline" />
		</g>
	<g
   inkscape:groupmode="layer"
   id="layer2"
   inkscape:label="sides"
   style="display:inline">
		<use
   x="0"
   y="0"
   xlink:href="#suit"
   id="use24"
   transform="matrix(0.49999998,0,0,0.49999998,19.182291,11.24479)"
   style="display:inline;stroke-width:2"
   inkscape:label="suit_tl" />
		<use
   x="0"
   y="0"
   xlink:href="#use24"
   id="use25"
   transform="matrix(1,0,0,-1,51.593747,88.899987)"
   inkscape:label="suit_br"
   style="display:inline" />
		
		
	<path
   d="m 5.9815728,10.054164 q -0.6829718,0 -1.2331436,-0.3130288 Q 4.2077432,9.4186207 3.8852288,8.868449 3.5722,8.3182772 3.5722,7.6353054 q 0,-0.2086858 0.1328001,-0.3414859 0.1328001,-0.1422858 0.3414859,-0.1422858 0.2086858,0 0.3509716,0.1422858 0.1422858,0.1328001 0.1422858,0.3414859 0,0.407886 0.1897144,0.7398861 0.1897144,0.3320002 0.5122289,0.5217146 0.3320002,0.1897144 0.7398861,0.1897144 0.4173717,0 0.7398861,-0.1897144 0.3320002,-0.1897144 0.5217146,-0.5217146 0.1897144,-0.3320001 0.1897144,-0.7398861 0,-0.4173717 -0.1897144,-0.7398861 Q 7.0534591,6.5634191 6.7214589,6.3737047 6.3989445,6.1839903 5.9815728,6.1839903 H 4.3974576 q -0.2086858,0 -0.3414859,-0.1328001 Q 3.9231716,5.9089044 3.9231716,5.7002186 V 3.1390743 q 0,-0.2086858 0.1328001,-0.3509716 Q 4.1887718,2.6458169 4.3974576,2.6458169 H 7.565688 q 0.1992001,0 0.3414859,0.1517715 0.1422858,0.1422858 0.1422858,0.3414859 0,0.1897144 -0.1422858,0.3320002 Q 7.7743738,3.6133603 7.565688,3.6133603 H 4.8812293 v 1.6030866 h 1.1003435 q 0.6924575,0 1.2331436,0.3225145 0.5501717,0.3130287 0.8632005,0.8632005 0.3225144,0.540686 0.3225144,1.2331435 0,0.6829718 -0.3225144,1.2331436 Q 7.7648881,9.4186207 7.2147164,9.7411352 6.6740303,10.054164 5.9815728,10.054164 Z"
   id="text6"
   style="font-weight:bold;font-size:9.48572px;font-family:Comfortaa;-inkscape-font-specification:'Comfortaa Bold';text-align:center;text-anchor:middle;fill:#1a1a1a;stroke-width:0.264582"
   inkscape:label="text_tl"
   aria-label="5" /><use
   x="0"
   y="0"
   xlink:href="#text6"
   id="use10"
   inkscape:label="text_br"
   transform="rotate(180,31.749998,44.45)" /></g><g
   inkscape:groupmode="layer"
   id="layer6"
   inkscape:label="blueprint"><path
     id="suit"
     style="display:inline;fill:#1a1a1a;stroke:none;stroke-width:0.396876"
     d="m -26.45937,-7.5e-6 -5.24662,5.054101 a 3.8672391,3.725507 0 0 0 -1.366927,2.842237 3.8672391,3.725507 0 0 0 3.867107,3.7256645 3.8672391,3.725507 0 0 0 2.333481,-0.754627 c -0.0951,0.559272 -0.17999,1.053403 -0.23071,1.142619 -0.1309,0.23021 -1.71993,0.89382 -1.72662,1.219172 h 4.742639 c 0.007,-0.31439 -1.55165,-0.911762 -1.67814,-1.134214 -0.0535,-0.094 -0.14805,-0.615437 -0.25381,-1.200545 a 3.8672391,3.725507 0 0 0 2.3081,0.736228 3.8672391,3.725507 0 0 0 3.86712,-3.7256645 3.8672391,3.725507 0 0 0 -1.31594,-2.799758 l -10e-4,-7e-4 z"
     inkscape:label="suit" /></g>
</svg>
