<?xml version="1.0" encoding="UTF-8" standalone="no"?>
<svg
   width="240"
   height="336"
   viewBox="0 0 63.5 88.9"
   version="1.1"
   id="svg1"
   inkscape:version="1.4.2 (f4327f4, 2025-05-13)"
   sodipodi:docname="6_heart.svg"
   xml:space="preserve"
   xmlns:inkscape="http://www.inkscape.org/namespaces/inkscape"
   xmlns:sodipodi="http://sodipodi.sourceforge.net/DTD/sodipodi-0.dtd"
   xmlns:xlink="http://www.w3.org/1999/xlink"
   xmlns="http://www.w3.org/2000/svg"
   xmlns:svg="http://www.w3.org/2000/svg">
	<sodipodi:namedview
   id="namedview1"
   pagecolor="#505050"
   bordercolor="#eeeeee"
   borderopacity="1"
   inkscape:showpageshadow="false"
   inkscape:pageopacity="0"
   inkscape:pagecheckerboard="0"
   inkscape:deskcolor="#505050"
   inkscape:document-units="px"
   inkscape:zoom="2.0000001"
   inkscape:cx="184"
   inkscape:cy="154.25"
   inkscape:window-width="1920"
   inkscape:window-height="1009"
   inkscape:window-x="1912"
   inkscape:window-y="-8"
   inkscape:window-maximized="1"
   inkscape:current-layer="layer3"
   labelstyle="default" />
	<defs
   id="defs1">
		<rect
   x="83"
   y="106"
   width="79"
   height="60.5"
   id="rect1" />
		<rect
   x="-30.405592"
   y="2.1213202"
   width="85.559921"
   height="76.367531"
   id="rect4" />
		<rect
   x="9"
   y="23"
   width="260.5"
   height="110"
   id="rect3" />
		<rect
   x="-8.5"
   y="30"
   width="331"
   height="87"
   id="rect2" />
	</defs>
	<g
   inkscape:label="base"
   inkscape:groupmode="layer"
   id="layer1"
   style="display:inline">
		<rect
   style="fill:#f2f2f2;stroke:#000000;stroke-width:0.264583;stroke-linecap:butt;stroke-linejoin:miter;stroke-miterlimit:4;stroke-dasharray:none;paint-order:normal"
   id="rect6"
   width="63.235416"
   height="88.635414"
   x="0.1322915"
   y="0.1322915"
   rx="2.6458333"
   ry="2.6458333"
   inkscape:label="outer" />
	</g>
	<g
   inkscape:groupmode="layer"
   id="layer5"
   inkscape:label="body"
   style="display:inline">
		<use
   x="0"
   y="0"
   xlink:href="#suit"
   id="use15"
   transform="translate(43.656251,7.9374995)"
   inkscape:label="suit4" />
		<use
   x="0"
   y="0"
   xlink:href="#suit"
   id="use16"
   transform="translate(72.76042,7.9374995)"
   inkscape:label="suit5" />
		<use
   x="0"
   y="0"
   xlink:href="#suit"
   id="use17"
   transform="matrix(0.99999997,0,0,-1,43.65625,80.962491)"
   inkscape:label="suit6" />
		<use
   x="0"
   y="0"
   xlink:href="#suit"
   id="use18"
   transform="matrix(0.99999997,0,0,-1,72.760419,80.962491)"
   inkscape:label="suit7"
   style="display:inline" />
		<use
   x="0"
   y="0"
   xlink:href="#suit"
   id="use2"
   inkscape:label="suit8"
   transform="translate(43.656251,37.835419)" />
		<use
   x="0"
   y="0"
   xlink:href="#suit"
   id="use3"
   inkscape:label="suit9"
   transform="translate(72.76042,37.835419)" />
		</g>
	<g
   inkscape:groupmode="layer"
   id="layer2"
   inkscape:label="sides"
   style="display:inline">
		<use
   x="0"
   y="0"
   xlink:href="#suit"
   id="use24"
   transform="matrix(0.49999998,0,0,0.49999998,19.182291,11.24479)"
   style="display:inline;stroke-width:2"
   inkscape:label="suit_tl" />
		<use
   x="0"
   y="0"
   xlink:href="#use24"
   id="use25"
   transform="matrix(1,0,0,-1,51.593747,88.899987)"
   inkscape:label="suit_br"
   style="display:inline" />
		
		
	<path
   d="m 6.0384887,10.054164 q -0.6545146,0 -1.1667435,-0.2845717 Q 4.369002,9.475535 4.0844305,8.9727919 3.7998589,8.460563 3.7998589,7.8060484 q 0,-0.6640004 0.2845716,-1.1667436 Q 4.369002,6.127076 4.8717452,5.8425044 5.3839741,5.5484471 6.0384887,5.5484471 q 0.6545147,0 1.1572578,0.2940573 0.5027432,0.2845716 0.7873147,0.7968004 0.2845716,0.5027432 0.2845716,1.1667436 0,0.6545146 -0.2845716,1.1667435 Q 7.6984897,9.475535 7.1957465,9.7695923 6.6930034,10.054164 6.0384887,10.054164 Z M 6.029003,9.2004492 q 0.3889145,0 0.6829718,-0.170743 0.303543,-0.1802287 0.474286,-0.4932574 0.1707429,-0.3225145 0.1707429,-0.7304004 0,-0.4173717 -0.1707429,-0.7304004 Q 7.0155178,6.7626192 6.7119748,6.5823905 6.4179175,6.4021619 6.029003,6.4021619 q -0.3889145,0 -0.6924575,0.1802286 Q 5.0424881,6.7626192 4.8717452,7.075648 4.710488,7.3886767 4.710488,7.8060484 q 0,0.4078859 0.1612572,0.7304004 0.1707429,0.3130287 0.4648003,0.4932574 0.303543,0.170743 0.6924575,0.170743 z M 4.1128876,6.5918762 6.3135746,2.9209027 q 0.1707429,-0.2656001 0.4363431,-0.2656001 0.1992001,0 0.3320002,0.1138286 0.1328001,0.1138287 0.1612572,0.2845716 0.037943,0.170743 -0.0664,0.3414859 L 5.8298029,5.6338186 Z"
   id="text6"
   style="font-weight:bold;font-size:9.48572px;font-family:Comfortaa;-inkscape-font-specification:'Comfortaa Bold';text-align:center;text-anchor:middle;fill:#d40000;stroke-width:0.264582"
   inkscape:label="text_tl"
   aria-label="6" /><use
   x="0"
   y="0"
   xlink:href="#text6"
   id="use10"
   inkscape:label="text_br"
   transform="rotate(180,31.749998,44.45)" /></g><g
   inkscape:groupmode="layer"
   id="layer6"
   inkscape:label="blueprint"><path
     id="suit"
     style="display:inline;fill:#d40000;stroke:none;stroke-width:0.396876"
     d="m -23.710939,2.05e-5 a 3.8672172,4.2375471 0 0 0 -2.75176,1.26018 3.8672172,4.2375471 0 0 0 -2.743,-1.250344 3.8672172,4.2375471 0 0 0 -3.867217,4.237546 3.8672172,4.2375471 0 0 0 1.367012,3.232856 l 5.246489,5.7489005 5.298813,-5.8062355 8.5e-4,-7.5e-4 a 3.8672172,4.2375471 0 0 0 1.316002,-3.184635 3.8672172,4.2375471 0 0 0 -3.867216,-4.237547 z"
     inkscape:label="suit" /></g>
</svg>
